<?xml version="1.0" encoding="UTF-8"?><svg id="Layer_2" xmlns="http://www.w3.org/2000/svg" viewBox="0 0 44 70.82"><defs><style>.cls-1{fill:#809848;}.cls-2{fill:#121212;}.cls-3{fill:none;stroke:#ede9e9;stroke-width:3px;}.cls-4{isolation:isolate;}</style></defs><g id="Layer_1-2"><g class="cls-4"><path class="cls-2" d="m7.65,51.61h-2.18v6.12h-1.35v-6.12H1.95v-1.11h5.71v1.11Z"/><path class="cls-2" d="m9.81,51.11c0,.11-.02.21-.06.3-.04.09-.1.17-.17.25-.07.07-.16.13-.25.17-.1.04-.2.06-.31.06-.11,0-.21-.02-.3-.06-.09-.04-.18-.1-.25-.17-.07-.07-.13-.15-.17-.25-.04-.09-.06-.19-.06-.3s.02-.21.06-.31.1-.18.17-.25c.07-.07.15-.13.25-.17s.2-.06.3-.06c.11,0,.21.02.31.06s.18.1.25.17c.07.07.13.15.17.25.04.1.06.2.06.31Zm-.17,1.5v5.13h-1.24v-5.13h1.24Z"/><path class="cls-2" d="m12.15,50.31v7.43h-1.23v-7.43h1.23Z"/><path class="cls-2" d="m13.75,57.74v-4.2l-.45-.07c-.1-.02-.17-.05-.23-.1-.06-.05-.09-.12-.09-.21v-.5h.77v-.38c0-.29.04-.56.13-.79s.21-.43.38-.59c.17-.16.37-.29.6-.38.24-.09.5-.13.8-.13.24,0,.46.03.66.1l-.03.62s-.02.08-.04.11-.05.05-.09.06c-.04.02-.08.03-.13.03s-.1,0-.16,0c-.15,0-.28.02-.39.05-.12.03-.21.09-.29.17-.08.08-.14.18-.18.31-.04.13-.06.29-.06.48v.34h1.33v.88h-1.29v4.21h-1.23Z"/><path class="cls-2" d="m20.98,53.27c.21.23.37.5.49.82s.17.68.17,1.07-.06.77-.18,1.1c-.12.33-.29.6-.51.83-.22.23-.49.41-.8.53-.31.12-.66.19-1.04.19-.24,0-.47-.02-.68-.07-.21-.05-.41-.12-.59-.21l-.17.24c-.05.07-.1.12-.16.17-.06.05-.12.08-.19.11-.06.03-.13.05-.2.06s-.14.02-.2.02h-.45l.77-1.04c-.22-.23-.39-.51-.51-.83-.12-.32-.17-.68-.17-1.09s.06-.77.18-1.09c.12-.33.29-.6.52-.83.22-.23.49-.4.8-.53.31-.12.66-.18,1.04-.18.48,0,.9.1,1.27.29l.28-.38c.04-.06.08-.11.11-.16.04-.04.07-.08.12-.1.04-.02.09-.04.14-.05.05-.01.12-.02.19-.02h.61l-.85,1.16Zm-1.18.33c-.19-.11-.42-.17-.69-.17-.44,0-.77.15-1,.45s-.35.73-.35,1.28c0,.4.06.73.17.99l1.88-2.55Zm-1.38,3.13c.2.11.43.16.69.16.43,0,.75-.15.98-.45s.35-.73.35-1.28c0-.2-.01-.38-.04-.53-.03-.16-.06-.3-.11-.43l-1.87,2.54Z"/><path class="cls-2" d="m23.86,52.61v5.3c0,.22-.03.43-.09.63-.06.2-.15.37-.28.52-.13.15-.3.27-.51.35-.21.08-.46.13-.76.13-.12,0-.23,0-.33-.02-.1-.01-.2-.04-.31-.07l.04-.67c0-.07.04-.11.08-.13.04-.02.13-.03.25-.03s.23-.01.31-.04c.08-.03.15-.07.2-.12.05-.05.09-.13.11-.22.02-.09.03-.2.03-.33v-5.3h1.24Zm.17-1.5c0,.11-.02.21-.06.3-.04.09-.1.17-.17.25-.07.07-.16.13-.25.17-.1.04-.2.06-.31.06s-.21-.02-.3-.06c-.09-.04-.17-.1-.24-.17-.07-.07-.13-.15-.17-.25-.04-.09-.06-.19-.06-.3s.02-.21.06-.31.1-.18.17-.25c.07-.07.15-.13.24-.17.09-.04.19-.06.3-.06s.21.02.31.06c.1.04.18.1.25.17.07.07.13.15.17.25.04.1.06.2.06.31Z"/><path class="cls-2" d="m28.7,53.24c.1-.1.21-.2.33-.29.12-.09.24-.16.37-.23s.27-.11.41-.14.31-.05.48-.05c.28,0,.53.05.75.14.22.09.4.23.54.4.15.17.26.38.33.62.08.24.11.5.11.79v3.26h-1.24v-3.26c0-.31-.07-.56-.22-.73-.14-.17-.36-.26-.65-.26-.21,0-.41.05-.6.14-.19.1-.36.23-.53.4v3.71h-1.24v-5.13h.76c.16,0,.26.08.31.22l.08.41Z"/><path class="cls-2" d="m37.71,52.61l-2.79,6.54c-.04.09-.08.15-.14.2s-.15.07-.27.07h-.92l.96-2.06-2.08-4.75h1.09c.1,0,.17.02.23.07.05.05.1.1.12.16l1.09,2.66c.04.09.07.18.09.27.03.09.05.18.07.27.03-.09.06-.19.09-.28s.06-.18.1-.27l1.03-2.66c.03-.07.07-.12.13-.17.06-.04.13-.06.21-.06h.99Z"/><path class="cls-2" d="m40.03,57.82c-.45,0-.79-.13-1.03-.38-.24-.25-.36-.6-.36-1.04v-2.87h-.52c-.07,0-.12-.02-.17-.06-.05-.04-.07-.11-.07-.2v-.49l.83-.13.26-1.4c.02-.07.05-.12.1-.15.05-.04.11-.06.18-.06h.64v1.62h1.37v.88h-1.37v2.78c0,.16.04.29.12.38.08.09.19.13.32.13.08,0,.14,0,.19-.03s.1-.04.13-.06.07-.04.1-.06c.03-.02.06-.03.09-.03.04,0,.07,0,.09.03s.05.05.08.08l.37.6c-.18.15-.39.26-.62.34-.23.08-.48.12-.73.12Z"/></g><g class="cls-4"><path class="cls-2" d="m3.91,66.32c.59-.54,1.3-.81,2.13-.81.3,0,.57.05.8.15.24.1.44.23.6.41.16.18.29.38.37.63s.13.51.13.8v3.24h-.56c-.12,0-.21-.02-.27-.05-.06-.04-.11-.11-.15-.21l-.11-.37c-.13.12-.26.22-.38.31-.12.09-.25.16-.38.22-.13.06-.28.11-.43.14-.15.03-.32.05-.5.05-.22,0-.42-.03-.6-.09-.18-.06-.34-.15-.47-.26-.13-.12-.24-.26-.31-.44-.07-.17-.11-.38-.11-.6,0-.13.02-.26.06-.39.04-.13.11-.25.21-.37.1-.12.23-.23.38-.33.16-.1.35-.19.58-.27.23-.08.49-.14.8-.19.3-.05.65-.08,1.04-.09v-.3c0-.34-.07-.6-.22-.76s-.36-.25-.63-.25c-.2,0-.37.02-.5.07-.13.05-.25.1-.35.16-.1.06-.19.11-.27.16-.08.05-.17.07-.27.07-.09,0-.16-.02-.22-.07-.06-.04-.11-.1-.14-.16l-.22-.4Zm2.83,2.22c-.36.02-.66.05-.9.09s-.44.1-.58.17c-.15.07-.25.15-.32.25-.06.09-.09.19-.09.3,0,.22.06.37.19.46.13.09.3.14.5.14.25,0,.47-.05.66-.14.18-.09.37-.23.54-.42v-.87Z"/><path class="cls-2" d="m10.27,66.5c.16-.31.35-.55.57-.72.22-.17.48-.26.78-.26.24,0,.43.05.57.15l-.08.93c-.02.06-.04.1-.07.13-.03.03-.07.04-.13.04-.05,0-.12,0-.22-.02-.1-.02-.19-.03-.29-.03-.14,0-.26.02-.37.06s-.2.1-.29.17c-.08.08-.16.17-.23.27-.06.11-.12.23-.18.37v3.16h-1.24v-5.13h.72c.13,0,.21.02.27.07.05.04.08.13.1.24l.08.58Z"/><path class="cls-2" d="m12.83,70.74v-5.13h.76c.16,0,.26.08.31.22l.08.38c.09-.1.18-.19.28-.27.1-.08.2-.16.32-.21.11-.06.23-.11.36-.14.13-.04.27-.05.42-.05.32,0,.59.09.8.26.21.17.36.41.47.7.08-.17.18-.32.3-.44s.25-.22.39-.3c.14-.08.3-.13.46-.17.16-.04.32-.05.49-.05.28,0,.54.04.75.13s.41.21.55.38c.15.17.26.37.34.61s.12.51.12.83v3.26h-1.23v-3.26c0-.33-.07-.57-.21-.74-.14-.17-.35-.25-.63-.25-.13,0-.24.02-.35.07-.11.04-.2.11-.28.19-.08.08-.15.18-.19.31-.05.12-.07.27-.07.43v3.26h-1.24v-3.26c0-.34-.07-.59-.21-.75-.14-.16-.34-.24-.61-.24-.18,0-.35.04-.5.13-.16.09-.3.21-.43.36v3.75h-1.24Z"/><path class="cls-2" d="m22.44,66.24c.21-.22.44-.39.69-.52.25-.13.54-.19.86-.19.3,0,.56.06.8.17.24.12.44.28.61.5.17.22.3.48.39.79.09.31.14.66.14,1.04,0,.42-.05.79-.16,1.14-.1.34-.25.63-.44.87-.19.24-.42.43-.69.56-.27.13-.57.2-.9.2-.16,0-.3-.02-.43-.05-.13-.03-.25-.08-.36-.13-.11-.06-.21-.12-.3-.21s-.18-.17-.26-.27l-.05.34c-.02.09-.05.15-.1.19-.05.04-.11.05-.2.05h-.82v-7.43h1.24v2.93Zm0,3.17c.14.17.29.29.46.36.16.07.34.1.52.1s.36-.03.51-.1c.15-.07.28-.17.39-.32.11-.15.19-.33.25-.56.06-.22.08-.49.08-.81,0-.56-.09-.97-.28-1.22-.19-.25-.46-.38-.8-.38-.24,0-.44.05-.62.16-.18.11-.34.26-.5.46v2.3Z"/><path class="cls-2" d="m26.77,66.32c.59-.54,1.3-.81,2.13-.81.3,0,.57.05.8.15.24.1.44.23.6.41.16.18.29.38.37.63s.13.51.13.8v3.24h-.56c-.12,0-.21-.02-.27-.05-.06-.04-.11-.11-.15-.21l-.11-.37c-.13.12-.26.22-.38.31-.12.09-.25.16-.38.22-.13.06-.28.11-.43.14-.15.03-.32.05-.5.05-.22,0-.42-.03-.6-.09-.18-.06-.34-.15-.47-.26-.13-.12-.24-.26-.31-.44-.07-.17-.11-.38-.11-.6,0-.13.02-.26.06-.39.04-.13.11-.25.21-.37.1-.12.23-.23.38-.33.16-.1.35-.19.58-.27.23-.08.49-.14.8-.19.3-.05.65-.08,1.04-.09v-.3c0-.34-.07-.6-.22-.76s-.36-.25-.63-.25c-.2,0-.37.02-.5.07-.13.05-.25.1-.35.16-.1.06-.19.11-.27.16-.08.05-.17.07-.27.07-.09,0-.16-.02-.22-.07-.06-.04-.11-.1-.14-.16l-.22-.4Zm.9-2.21c0-.15.03-.29.09-.42.06-.13.14-.24.24-.33s.22-.16.35-.21c.13-.05.27-.08.42-.08s.29.03.43.08.26.12.36.21c.1.09.19.2.25.33s.09.27.09.42-.03.29-.09.41-.14.23-.25.32c-.1.09-.22.16-.36.21-.14.05-.28.07-.43.07s-.29-.02-.42-.07c-.13-.05-.25-.12-.35-.21s-.18-.19-.24-.32c-.06-.12-.09-.26-.09-.41Zm1.92,4.43c-.36.02-.66.05-.9.09s-.44.1-.58.17c-.15.07-.25.15-.32.25-.06.09-.09.19-.09.3,0,.22.06.37.19.46.13.09.3.14.5.14.25,0,.47-.05.66-.14.18-.09.37-.23.54-.42v-.87Zm-1.25-4.43c0,.13.04.23.12.32.08.08.19.13.34.13.13,0,.24-.04.32-.13s.12-.19.12-.32c0-.14-.04-.25-.12-.33-.08-.08-.19-.12-.32-.12-.15,0-.26.04-.34.12-.08.08-.12.19-.12.33Z"/><path class="cls-2" d="m33.11,66.24c.1-.1.21-.2.33-.29.12-.09.24-.16.37-.23.13-.06.27-.11.41-.14.15-.04.31-.05.48-.05.28,0,.53.05.75.14s.4.23.54.4c.14.17.25.38.33.62.08.24.11.5.11.79v3.26h-1.24v-3.26c0-.31-.07-.56-.21-.73s-.36-.26-.66-.26c-.21,0-.41.05-.6.14-.19.1-.36.23-.53.4v3.71h-1.24v-5.13h.76c.16,0,.26.08.31.22l.08.41Z"/><path class="cls-2" d="m42.05,63.31v7.43h-.75c-.16,0-.27-.08-.31-.22l-.11-.5c-.21.24-.44.43-.71.58-.27.15-.58.22-.94.22-.28,0-.54-.06-.77-.17-.23-.12-.43-.29-.6-.51-.17-.22-.3-.5-.39-.82-.09-.33-.14-.7-.14-1.12,0-.38.05-.73.16-1.06.1-.33.25-.61.44-.85s.43-.43.7-.56c.27-.13.57-.2.91-.2.29,0,.53.04.74.13.2.09.38.21.54.37v-2.71h1.23Zm-1.23,3.61c-.14-.17-.29-.29-.46-.36-.17-.07-.34-.11-.53-.11s-.36.04-.5.11c-.15.07-.28.18-.38.32-.11.14-.19.32-.25.54-.06.22-.08.48-.08.77s.02.55.07.76c.05.21.12.38.21.51.09.13.2.23.33.29.13.06.28.09.44.09.26,0,.47-.05.65-.16.18-.11.35-.26.51-.45v-2.3Z"/></g><g id="Group_111"><g id="Group_11"><circle id="Ellipse_6" class="cls-1" cx="22" cy="22" r="22"/></g><g id="Group_55"><line id="Line_6-2" class="cls-3" x1="11" y1="22.02" x2="32.25" y2="22.02"/><line id="Line_7-2" class="cls-3" x1="22.02" y1="32.25" x2="22.02" y2="11"/></g></g></g></svg>