<svg xmlns="http://www.w3.org/2000/svg" xmlns:xlink="http://www.w3.org/1999/xlink" width="39.861" height="26.436" viewBox="0 0 39.861 26.436">
  <defs>
    <clipPath id="clip-path">
      <rect id="Rectangle_83" data-name="Rectangle 83" width="36.906" height="15.252" fill="none"/>
    </clipPath>
  </defs>
  <g id="Group_118" data-name="Group 118" transform="translate(0 12.016) rotate(-19)">
    <g id="Group_117" data-name="Group 117" transform="translate(0 0)" clip-path="url(#clip-path)">
      <path id="Path_235" data-name="Path 235" d="M35.6,1.333l-6.94-.8S22.989,0,19.072,0,8.248.532,8.248.532l-6.94.8A1.536,1.536,0,0,0,0,3.022V12.23a1.536,1.536,0,0,0,1.308,1.689l6.94.8s6.907.535,10.824.535,9.586-.535,9.586-.535l6.94-.8a1.535,1.535,0,0,0,1.308-1.689V3.022A1.535,1.535,0,0,0,35.6,1.333M19.981,12.34a.422.422,0,0,1-.7.139,1.179,1.179,0,0,0-1.65,0,.426.426,0,0,1-.708-.147.738.738,0,0,1,.18-.9,1.97,1.97,0,0,1,2.708.008.735.735,0,0,1,.166.9m1.1-1.995a.43.43,0,0,1-.723.125,2.735,2.735,0,0,0-3.818.011.425.425,0,0,1-.712-.108.744.744,0,0,1,.164-.917,3.936,3.936,0,0,1,1.17-.747,3.559,3.559,0,0,1,1.288-.26,3.68,3.68,0,0,1,2.447.985.742.742,0,0,1,.184.911M22.156,8.37a.424.424,0,0,1-.71.125,4.279,4.279,0,0,0-5.9-.074c-.042.034-.079.071-.12.1a.419.419,0,0,1-.681-.15.736.736,0,0,1,.136-.877,5.192,5.192,0,0,1,1.8-1.126c.39-.136.8-.2,1.194-.306A1.041,1.041,0,0,0,18,6.03h.9c.307.065.613.119.918.2A5.4,5.4,0,0,1,22,7.47a.739.739,0,0,1,.16.9m13.49-5.2-6.938.41c-.066,0-5.744.274-9.637.274S8.283,3.579,8.215,3.579L1.26,3.166c-.3-.02-.524-.2-.5-.393s.313-.365.594-.331l6.94.41c.053,0,6.918.272,10.776.272s9.492-.269,9.547-.272l6.929-.41c.333-.037.567.13.6.331s-.195.374-.5.393" transform="translate(0 0.001)"/>
    </g>
  </g>
</svg>
