<svg xmlns="http://www.w3.org/2000/svg" xmlns:xlink="http://www.w3.org/1999/xlink" width="38.854" height="25.851" viewBox="0 0 38.854 25.851">
  <defs>
    <clipPath id="clip-path">
      <rect id="Rectangle_65" data-name="Rectangle 65" width="35.61" height="17.221" fill="none"/>
    </clipPath>
  </defs>
  <g id="Group_94" data-name="Group 94" transform="matrix(-0.966, 0.259, -0.259, -0.966, 38.854, 16.634)">
    <g id="Group_93" data-name="Group 93" transform="translate(0 0)" clip-path="url(#clip-path)">
      <path id="Path_219" data-name="Path 219" d="M34.348,15.716l-6.7.9s-5.47.6-9.25.6-10.444-.6-10.444-.6l-6.7-.9c-.7,0-1.262-.853-1.262-1.907V3.412C0,2.358.566,1.5,1.262,1.5l6.7-.9S14.623,0,18.4,0s9.25.6,9.25.6l6.7.9c.7,0,1.262.853,1.262,1.907v10.4c0,1.054-.564,1.907-1.262,1.907M21.526,4.764a14.02,14.02,0,0,0-1.718-.042c-.129.006-.273.208-.38.367a5.856,5.856,0,0,0-.326.674c-.328-.783-.628-1.5-.926-2.214-.233-.559-.668-.55-.867.038-.347,1.022-.681,2.054-1.021,3.08-.047.141-.1.278-.175.482-.218-.684-.421-1.291-.6-1.911-.11-.371-.281-.553-.55-.556-.524-.01-1.048-.035-1.571-.045-.34,0-.539.252-.552.681s.205.725.545.741c.387.019.772.035,1.156.032.161,0,.245.073.311.307.243.847.507,1.684.757,2.527.1.323.22.569.473.585s.4-.23.514-.562c.4-1.179.8-2.352,1.224-3.594.29.712.558,1.367.822,2.029.241.6.647.677.858.064.353-1.032.881-1.38,1.606-1.256a1.078,1.078,0,0,0,.414-.035c.256-.061.412-.3.416-.693s-.146-.677-.408-.7m12.868,8.882L27.7,13.183c-.063,0-5.542-.31-9.3-.31s-10.41.307-10.476.307l-6.711.466c-.29.022-.505.22-.48.444a.5.5,0,0,0,.573.374L8,14c.051,0,6.675-.307,10.4-.307s9.159.3,9.212.307l6.686.463a.476.476,0,0,0,.575-.374c.025-.224-.188-.422-.48-.444" transform="translate(0 -0.002)"/>
    </g>
  </g>
</svg>
