<svg xmlns="http://www.w3.org/2000/svg" xmlns:xlink="http://www.w3.org/1999/xlink" width="28.03" height="35.997" viewBox="0 0 28.03 35.997">
  <defs>
    <clipPath id="clip-path">
      <path id="Path_22" data-name="Path 22" d="M0,16.663H28.03v-36H0Z" transform="translate(0 19.334)" fill="none"/>
    </clipPath>
  </defs>
  <g id="Group_41" data-name="Group 41" transform="translate(0 19.334)">
    <g id="Group_40" data-name="Group 40" transform="translate(0 -19.334)" clip-path="url(#clip-path)">
      <g id="Group_38" data-name="Group 38" transform="translate(0 -0.001)">
        <path id="Path_20" data-name="Path 20" d="M5.008,2.751c0-1.441-.017-2.882.006-4.323.017-1.05.387-1.458,1.3-1.543,1.087-.1,1.709.253,1.884,1.24.285,1.622.51,3.256.719,4.893.132,1.039.2,2.089.272,3.137A9.116,9.116,0,0,1,8.776,9.7a6.533,6.533,0,0,1-3.249,4.014,1.5,1.5,0,0,0-.9,1.687c.305,5,.555,10.009.819,15.014a4.9,4.9,0,0,1,0,.721A1.63,1.63,0,0,1,3.891,32.76c-1.435.047-2.877.047-4.312,0a1.676,1.676,0,0,1-1.607-1.853C-2,29.736-1.9,28.569-1.84,27.4q.229-4.36.451-8.721c.063-1.2.1-2.4.207-3.6a1.1,1.1,0,0,0-.648-1.225,6.767,6.767,0,0,1-2-1.538A7.484,7.484,0,0,1-5.782,6.461c.216-2.748.635-5.479,1.017-8.211A1.691,1.691,0,0,1-2.039-2.826a1.391,1.391,0,0,1,.482,1.193c0,.991.007,1.981.007,2.972q0,2.614-.006,5.226c0,.24-.007.48,0,.721.03.605.182.8.594.786s.562-.22.594-.817C-.228,4.737-.1,2.22.029-.3.059-.835.1-1.375.173-1.91a1.207,1.207,0,0,1,1.184-1.2,2.925,2.925,0,0,1,.687.006,1.176,1.176,0,0,1,1.223,1.24c.136,1.493.233,2.99.317,4.487.088,1.529.142,3.057.21,4.588.006.119.011.24.028.357a.538.538,0,0,0,.605.5.5.5,0,0,0,.547-.549c.015-.631.009-1.26.009-1.892V2.751Z" transform="translate(5.811 3.192)"/>
      </g>
      <g id="Group_39" data-name="Group 39" transform="translate(17.227 0.066)">
        <path id="Path_21" data-name="Path 21" d="M5,8.327v15.31c0,.091,0,.181,0,.27.013,1.523-.57,2.446-2.229,2.355-.946-.05-1.9.009-2.847-.015a1.794,1.794,0,0,1-1.888-2.208c.311-3.917.611-7.837.963-11.748a1.772,1.772,0,0,0-.7-1.612A12.431,12.431,0,0,1-5.69,3.5,8.2,8.2,0,0,1-5.443-.148,15.741,15.741,0,0,1-2.026-6.637,8.856,8.856,0,0,1,2.1-9.476c.084-.022.164-.058.248-.076,1.692-.4,2.651.285,2.642,2.119C4.978-4.492,5-1.55,5,1.392q0,3.469,0,6.935Z" transform="translate(5.798 9.662)"/>
      </g>
    </g>
  </g>
</svg>
