<svg id="Group_54" data-name="Group 54" xmlns="http://www.w3.org/2000/svg" xmlns:xlink="http://www.w3.org/1999/xlink" width="117.364" height="117.364" viewBox="0 0 117.364 117.364">
  <defs>
    <clipPath id="clip-path">
      <rect id="Rectangle_38" data-name="Rectangle 38" width="117.364" height="117.364" fill="none"/>
    </clipPath>
  </defs>
  <g id="Group_53" data-name="Group 53" clip-path="url(#clip-path)">
    <path id="Path_38" data-name="Path 38" d="M58.682,0a58.682,58.682,0,1,0,58.682,58.682A58.681,58.681,0,0,0,58.682,0M90.414,31.644c-8.161,7.418-15,15.983-21.488,24.844l-20,30.584a7.743,7.743,0,0,1-1.193,1.27H47.16a4.243,4.243,0,0,1-1.016-.856c-5.071-8.27-10.75-16.125-16.391-24.006-.977-1.366-1.974-2.718-2.957-4.08a1.5,1.5,0,0,1,.179-2.286q1.939-1.93,3.893-3.846a1.506,1.506,0,0,1,2.343-.2Q39.854,57.7,46.492,62.34c.193.135.392.262.63.42.8-.994,1.569-1.969,2.353-2.935A164.3,164.3,0,0,1,75.2,34.023c2.034-1.6,4.178-3.062,6.308-4.536a2.813,2.813,0,0,1,1.47-.439c2.135-.047,4.272-.017,6.409-.022A1.453,1.453,0,0,1,90.9,29.9a1.468,1.468,0,0,1-.484,1.742" fill="#693"/>
  </g>
</svg>
