<?xml version="1.0" encoding="UTF-8"?><svg id="Layer_2" xmlns="http://www.w3.org/2000/svg" viewBox="0 0 20.41 20.42"><g id="Layer_1-2"><path d="m10.23,7.8c.33-.34.65-.66.97-.98,2.1-2.1,4.2-4.21,6.3-6.31.67-.67,1.73-.69,2.39-.04.69.68.71,1.75.02,2.43-2.34,2.35-4.68,4.7-7.02,7.04-.09.09-.19.16-.32.26.45.44.86.83,1.26,1.23,2.01,2.01,4.02,4.02,6.03,6.03.71.71.74,1.77.06,2.45-.69.69-1.74.68-2.46-.04-1.56-1.55-3.11-3.11-4.66-4.66-.8-.8-1.61-1.61-2.41-2.41-.05-.05-.11-.1-.21-.2-.34.36-.67.72-1.01,1.06-2.08,2.08-4.17,4.16-6.25,6.24-.68.68-1.74.68-2.42.01-.66-.66-.67-1.72,0-2.4,2.04-2.05,4.09-4.1,6.14-6.15.38-.38.76-.75,1.15-1.13-.07-.08-.12-.13-.17-.19C5.26,7.68,2.9,5.31.54,2.94c-.7-.71-.71-1.76-.02-2.45.67-.67,1.74-.65,2.43.05,2.37,2.37,4.74,4.73,7.11,7.1.05.05.1.09.18.16Z"/></g></svg>