<svg xmlns="http://www.w3.org/2000/svg" xmlns:xlink="http://www.w3.org/1999/xlink" width="20.811" height="20.803" viewBox="0 0 20.811 20.803">
  <defs>
    <clipPath id="clip-path">
      <rect id="Rectangle_73" data-name="Rectangle 73" width="20.811" height="20.803" fill="none"/>
    </clipPath>
  </defs>
  <g id="Group_108" data-name="Group 108" transform="translate(0 0)">
    <g id="Group_106" data-name="Group 106" transform="translate(0 0)" clip-path="url(#clip-path)">
      <path id="Path_222" data-name="Path 222" d="M20.811,9.749v1.3c-.012.052-.026.1-.034.157-.071.481-.116.968-.214,1.444a10.4,10.4,0,0,1-8.341,7.992c-.386.062-.774.107-1.162.16H9.76c-.059-.012-.117-.027-.176-.035-.494-.074-1-.116-1.483-.224A10.4,10.4,0,1,1,20.654,8.606c.063.379.106.762.158,1.143m-10.4,8.607a7.957,7.957,0,1,0-7.962-7.941,7.978,7.978,0,0,0,7.962,7.941" transform="translate(0 0)" fill="#fff"/>
      <path id="Path_223" data-name="Path 223" d="M33.934,61.746c-.012-.165-.022-.331-.038-.5s-.037-.308-.054-.462c-.008-.07-.047-.085-.112-.081a.587.587,0,0,0-.579.484c-.03.116-.058.232-.088.356l.312.109q.276.056.559.089" transform="translate(-24.318 -44.65)" fill="#fff"/>
      <path id="Path_224" data-name="Path 224" d="M32.536,53.849c-.254.163-.5.315-.746.481a.933.933,0,0,0-.378.821c0,.257.031.284.28.291a1.266,1.266,0,0,0,.149,0,1.382,1.382,0,0,0,.986-.4.319.319,0,0,0,.094-.3,2.908,2.908,0,0,0-.385-.9" transform="translate(-23.104 -39.606)" fill="#fff"/>
      <path id="Path_225" data-name="Path 225" d="M31.186,47.537a1.053,1.053,0,0,0-.968.543.129.129,0,0,0-.013.109,2.865,2.865,0,0,0,.293.4.448.448,0,0,0,.465.135.913.913,0,0,0,.607-.871c-.016-.275-.067-.323-.383-.318" transform="translate(-22.21 -34.963)" fill="#fff"/>
      <path id="Path_226" data-name="Path 226" d="M33.309,64.019l-.273-.089-.006.025q.138.035.279.065" transform="translate(-24.294 -47.021)" fill="#fff"/>
      <path id="Path_227" data-name="Path 227" d="M27.342,20.444a6.735,6.735,0,1,0-10.188,5.928c.01-.284-.049-1.1-.024-1.211s.055-.135.168-.113a1.492,1.492,0,0,0,.782-.059c.074-.026.109-.063.093-.148-.038-.2-.06-.4-.107-.595-.1-.394-.1-.393-.474-.517,0,0-.006-.006-.011-.011l.743-2.989a1.058,1.058,0,0,1-.7-.322,2.4,2.4,0,0,1-.308-.526A1.651,1.651,0,0,0,16.8,19.1a.591.591,0,0,1-.1-.122,1.461,1.461,0,0,1,1.913.545c.02-.051.032-.076.04-.1a1,1,0,0,1,.5-.671.124.124,0,0,0,.047-.1.452.452,0,0,0-.292-.389c-.129-.066-.267-.114-.391-.187a.459.459,0,0,1-.155-.577.362.362,0,0,1,.481-.186.606.606,0,0,1,.229.164c.107.126.2.269.291.406.148.212.286.431.445.633a1.294,1.294,0,0,0,.272.2.793.793,0,0,0-.178-.811.888.888,0,0,1-.148-.167.357.357,0,0,1-.015-.373.342.342,0,0,1,.326-.191.546.546,0,0,1,.5.452,3.962,3.962,0,0,1,.038.49.758.758,0,0,0,.306.605c.055.04.094.039.132-.022.055-.089.112-.176.171-.262a1.382,1.382,0,0,1,.9-.625c.026.179.047.353.078.526a.867.867,0,0,1-.244.784c-.073.078-.156.146-.241.226.065.062.107.107.155.145.328.262.659.519.986.782.433.349.867.7,1.295,1.054a1.015,1.015,0,0,1,.37.806.3.3,0,0,1-.231.329,2.371,2.371,0,0,1-.38.11,2.174,2.174,0,0,1-.5.039,2.116,2.116,0,0,1-.442-.112,4.081,4.081,0,0,0-1.761-.178A2.235,2.235,0,0,1,19.65,22a1.071,1.071,0,0,0-.1-.051l-.019.037a1.682,1.682,0,0,0,1.138.679c-.006.117-.01.231-.019.343-.007.092-.02.183-.031.278-.06.01-.117.019-.173.03a.473.473,0,0,0-.413.462,3,3,0,0,0,.063.446.2.2,0,0,0,.233.175,2.156,2.156,0,0,0,.221-.035l-.2,2.957c.137,0,.274.006.412,0a6.749,6.749,0,0,0,6.583-6.88" transform="translate(-10.203 -10.188)" fill="#fff"/>
      <path id="Path_228" data-name="Path 228" d="M30.979,63.175l0-.011-.746-.26c0,.009,0,.018,0,.027Z" transform="translate(-22.237 -46.266)" fill="#fff"/>
      <path id="Path_229" data-name="Path 229" d="M27.946,61.462a.868.868,0,0,0-.681-.084c-.035.012-.08.023-.1.05l0,.006c.06.033.118.066.179.1l.636.222c.006-.064.012-.126.014-.189a.129.129,0,0,0-.046-.1" transform="translate(-19.979 -45.115)" fill="#fff"/>
      <path id="Path_230" data-name="Path 230" d="M29.209,62.7c0-.011,0-.022,0-.032l-.367-.121c.12.055.241.105.364.153" transform="translate(-21.216 -46.006)" fill="#fff"/>
    </g>
  </g>
</svg>
