<svg xmlns="http://www.w3.org/2000/svg" xmlns:xlink="http://www.w3.org/1999/xlink" width="28.243" height="53.996" viewBox="0 0 28.243 53.996">
  <defs>
    <clipPath id="clip-path">
      <rect id="Rectangle_49" data-name="Rectangle 49" width="28.243" height="53.996" fill="none"/>
    </clipPath>
  </defs>
  <g id="Group_79" data-name="Group 79" transform="translate(0 0)">
    <g id="Group_78" data-name="Group 78" transform="translate(0 0)" clip-path="url(#clip-path)">
      <path id="Path_197" data-name="Path 197" d="M11.986,7.006A7.063,7.063,0,0,1,16.138.567,7.27,7.27,0,0,1,24.5,2.475a7,7,0,0,1,.727,8.313c-1.577,2.546-3.347,4.975-5.071,7.428-.615.874-1.339.867-1.964,0-1.694-2.354-3.374-4.718-5-7.117a7.5,7.5,0,0,1-1.2-4.088m7.148,2.931A2.858,2.858,0,1,0,16.274,7.1a2.8,2.8,0,0,0,2.86,2.833" transform="translate(1.978 0)"/>
      <path id="Path_198" data-name="Path 198" d="M10.076,12.016a13.349,13.349,0,0,1,1.377.4,5.2,5.2,0,1,1-2.881-.324,2.193,2.193,0,0,0,.254-.077Z" transform="translate(0.702 1.983)"/>
      <path id="Path_199" data-name="Path 199" d="M14.589,44.733c0,.315-.006.6,0,.884.034,1.3.077,2.6.1,3.895a.47.47,0,0,1-.171.309,2.181,2.181,0,0,1-1.432.536c-1.94.006-3.878.015-5.818,0a2.324,2.324,0,0,1-2.308-2.476c-.01-2.2,0-4.4,0-6.6V40.6c-.172,0-.323,0-.472,0a16.19,16.19,0,0,1-2.333-.089A2.61,2.61,0,0,1,.069,37.358c.606-2.553,1.275-5.091,1.92-7.635.348-1.372.694-2.746,1.053-4.115a4.669,4.669,0,0,1,4.655-3.6q2.518-.005,5.036,0a4.5,4.5,0,0,1,2.224.567,5.482,5.482,0,0,0,.952,5.635c-.559.472-1.137.892-1.632,1.4A4.437,4.437,0,0,0,13.2,31.7c-.7,2.772-1.372,5.551-2.127,8.308A3.629,3.629,0,0,0,14.338,44.7c.064,0,.127.015.252.03" transform="translate(0 3.632)"/>
      <path id="Path_200" data-name="Path 200" d="M22.083,42.1v.468c0,1.6,0,3.2,0,4.8a1.752,1.752,0,0,1-1.962,1.942q-1.914,0-3.827,0A1.739,1.739,0,0,1,14.386,47.4q0-2.4,0-4.8V42.1c-.23,0-.431,0-.633,0-.416-.007-.835.015-1.247-.031a1.978,1.978,0,0,1-1.744-2.439q1.092-4.407,2.25-8.8a3.341,3.341,0,0,1,3.17-2.456q2.048-.044,4.1,0a3.338,3.338,0,0,1,3.166,2.46q1.166,4.388,2.248,8.8a1.974,1.974,0,0,1-1.747,2.436c-.464.05-.935.023-1.4.03-.139,0-.278,0-.463,0" transform="translate(1.766 4.679)"/>
      <path id="Path_201" data-name="Path 201" d="M13.867,24.787a3.841,3.841,0,1,1,3.811,3.875,3.83,3.83,0,0,1-3.811-3.875" transform="translate(2.288 3.461)"/>
    </g>
  </g>
</svg>
