<?xml version="1.0" encoding="UTF-8"?><svg id="Layer_2" xmlns="http://www.w3.org/2000/svg" viewBox="0 0 12.59 21.58"><defs><style>.cls-1{fill:#4d4d4d;}</style></defs><g id="Layer_1-2"><g id="bvweC4.tif"><path d="m8.27,10.83c-.17.14-.31.24-.43.36-2.36,2.35-4.71,4.71-7.06,7.06-.15.15-.3.3-.42.47-.58.77-.44,1.85.32,2.45.79.63,1.75.53,2.56-.29,2.86-2.86,5.72-5.72,8.58-8.58,1.03-1.03,1.04-2,0-3.03C8.99,6.44,6.15,3.6,3.3.76c-.14-.14-.28-.28-.44-.4C1.89-.38.46.07.09,1.24c-.25.79.03,1.42.59,1.98,2.41,2.4,4.81,4.8,7.21,7.21.11.11.21.22.38.4Z"/><path class="cls-1" d="m8.27,10.83c-.17-.18-.28-.29-.38-.4C5.49,8.03,3.09,5.62.68,3.22.12,2.66-.16,2.03.09,1.24.46.07,1.89-.38,2.87.36c.16.12.3.26.44.4,2.84,2.84,5.68,5.68,8.52,8.52,1.03,1.03,1.02,1.99,0,3.03-2.86,2.86-5.72,5.72-8.58,8.58-.81.81-1.78.92-2.56.29-.75-.6-.89-1.68-.32-2.45.13-.17.28-.32.42-.47,2.35-2.35,4.71-4.71,7.06-7.06.12-.12.26-.22.43-.36Z"/></g></g></svg>