<svg xmlns="http://www.w3.org/2000/svg" xmlns:xlink="http://www.w3.org/1999/xlink" width="17.843" height="22.713" viewBox="0 0 17.843 22.713">
  <defs>
    <clipPath id="clip-path">
      <rect id="Rectangle_51" data-name="Rectangle 51" width="17.843" height="22.713" transform="translate(0 0)" fill="none"/>
    </clipPath>
  </defs>
  <g id="Group_82" data-name="Group 82" transform="translate(0 0)">
    <g id="Group_80" data-name="Group 80" clip-path="url(#clip-path)">
      <path id="Path_202" data-name="Path 202" d="M4.212,19.465C3.9,20.285,3.6,21.1,3.3,21.911c-.033.087-.063.174-.1.26a.811.811,0,1,1-1.515-.581c.472-1.273.952-2.543,1.429-3.814L4.4,14.333A6.72,6.72,0,0,1,.834,7.326C.72,7.3.639,7.279.561,7.253a.816.816,0,0,1-.555-.867.829.829,0,0,1,.75-.708c.076-.005.152,0,.228,0H16.851a1.879,1.879,0,0,1,.328.014.822.822,0,0,1,.663.764.812.812,0,0,1-.576.8c-.071.022-.144.039-.233.062,0,.336,0,.673,0,1.01a6.442,6.442,0,0,1-3.483,5.927c-.029.017-.056.035-.109.068.09.246.181.5.275.745q1.212,3.233,2.425,6.467a.826.826,0,0,1-.3,1.047.806.806,0,0,1-1.2-.431q-.469-1.215-.912-2.441a.317.317,0,0,0-.357-.253c-2.966.009-5.931.006-8.9.006ZM5.925,14.9c-.357.953-.724,1.933-1.1,2.928h8.19l-1.1-2.923a40.164,40.164,0,0,1-6,0" fill="#fff"/>
      <path id="Path_203" data-name="Path 203" d="M5.806.942c-.077.685-.16,1.406-.236,2.127-.019.176-.012.354-.023.531-.018.284-.175.455-.409.452a.41.41,0,0,1-.395-.487c.031-.539.084-1.076.129-1.614C4.913,1.464,4.959.977,5,.489c.024-.319.176-.5.425-.488s.39.2.385.524c0,.127,0,.253,0,.417" fill="#fff"/>
      <path id="Path_204" data-name="Path 204" d="M8.238.953C8.164,1.616,8.081,2.337,8,3.058c-.019.176-.012.354-.023.531-.017.3-.181.474-.423.462s-.4-.2-.382-.5c.029-.5.076-.992.117-1.488C7.34,1.508,7.386.954,7.437.4A.4.4,0,0,1,7.843,0a.41.41,0,0,1,.4.413c0,.05,0,.1,0,.151V.953" fill="#fff"/>
      <path id="Path_205" data-name="Path 205" d="M9.606,3.122c.078-.694.161-1.414.237-2.135C9.862.8,9.854.615,9.867.43a.41.41,0,0,1,.4-.43.4.4,0,0,1,.4.458c-.052.7-.129,1.393-.19,2.09-.029.345-.043.691-.065,1.036-.019.3-.177.476-.419.468s-.39-.2-.39-.5V3.122" fill="#fff"/>
      <path id="Path_206" data-name="Path 206" d="M13.107.939c-.077.685-.16,1.406-.236,2.127-.019.184-.011.371-.024.557a.41.41,0,0,1-.4.429.4.4,0,0,1-.4-.459c.03-.547.083-1.093.128-1.639.041-.487.087-.974.125-1.462.024-.32.173-.5.422-.491s.392.2.388.521c0,.127,0,.253,0,.417" fill="#fff"/>
    </g>
  </g>
</svg>
