<?xml version="1.0" encoding="UTF-8"?><svg id="Layer_2" xmlns="http://www.w3.org/2000/svg" viewBox="0 0 35.19 51.17"><defs><style>.cls-1{fill:#fff;}.cls-2{isolation:isolate;}</style></defs><g id="Layer_1-2"><path class="cls-1" d="m17.28,40.93c-.56-.18-.93-.57-1.25-1.05-1.17-1.76-2.37-3.51-3.57-5.25-.12-.17-.32-.32-.51-.4C5.11,31.63,1.06,26.74.13,19.48-.86,11.69,3.77,4.14,11.11,1.24c8.89-3.51,18.9.65,22.67,9.44,4.01,9.34-.87,20.27-10.5,23.53-.22.07-.44.25-.57.44-1.2,1.74-2.39,3.49-3.57,5.25-.31.47-.68.84-1.23,1.02h-.64Zm.33-4.45c.96-1.41,1.89-2.76,2.79-4.13.34-.52.77-.84,1.37-1.01,7.06-2.1,11.4-9.32,9.96-16.53C30.1,6.72,22.07,1.63,14.09,3.63,5.96,5.67,1.25,14.26,3.98,22.19c1.59,4.61,4.8,7.64,9.44,9.13.59.19,1.03.49,1.37,1.01.79,1.2,1.61,2.38,2.41,3.57.12.17.24.34.4.56Z"/><path class="cls-1" d="m15.88,21.48c-.14.03-.24.06-.35.08-.7.15-.8.28-.81,1,0,.24,0,.47.01.71.04.54.22.75.76.76,1.35.03,2.71.03,4.06.04.06,0,.13,0,.19-.02.48-.09.69-.29.7-.85,0-.57.23-1.24-.52-1.57-.08-.03-.17-.04-.25-.06-.14-.04-.28-.07-.46-.12,0-.41,0-.79,0-1.18,0-1.16,0-2.32-.01-3.48,0-.6-.19-.81-.75-.83-.94-.03-1.89-.05-2.83-.01-.68.02-.85.24-.89.92,0,.11,0,.21,0,.32,0,1.03.02,1.06,1.01,1.28.04,0,.07.04.15.08v2.92Zm-.39-8.73c0,1.12.99,2.12,2.08,2.11,1.1,0,2.1-1.01,2.11-2.11,0-1.09-1.01-2.1-2.11-2.1-1.14,0-2.08.95-2.08,2.1Z"/><g id="Tilføj_nyt_armbånd" class="cls-2"><g class="cls-2"><path class="cls-1" d="m10.94,51.09h-1.35v-7.23h1.35v7.23Z"/><path class="cls-1" d="m13.44,46.59c.1-.1.21-.2.33-.29.12-.09.24-.16.37-.23.13-.06.27-.11.41-.14.15-.04.31-.05.48-.05.28,0,.53.05.75.14.22.09.4.23.54.4.15.17.25.38.33.62.08.24.11.5.11.79v3.26h-1.23v-3.26c0-.31-.07-.56-.22-.73s-.36-.26-.66-.26c-.21,0-.41.05-.6.14-.19.1-.36.23-.53.4v3.71h-1.24v-5.13h.76c.16,0,.26.08.31.22l.09.41Z"/><path class="cls-1" d="m18.19,51.09v-4.2l-.45-.07c-.1-.02-.17-.05-.23-.1-.06-.05-.09-.12-.09-.21v-.5h.76v-.38c0-.29.04-.56.13-.79s.21-.43.38-.59c.17-.16.37-.29.6-.38.24-.09.5-.13.8-.13.24,0,.46.03.66.1l-.02.62s-.02.08-.04.11-.05.05-.09.06c-.04.02-.08.03-.13.03-.05,0-.1,0-.16,0-.15,0-.28.02-.39.05-.12.03-.21.09-.29.17-.08.08-.14.18-.18.31-.04.13-.06.29-.06.48v.34h1.33v.88h-1.29v4.21h-1.24Z"/><path class="cls-1" d="m23.55,45.88c.38,0,.73.06,1.04.18.31.12.58.3.8.53.22.23.39.5.51.83.12.33.18.69.18,1.09s-.06.77-.18,1.1c-.12.33-.29.6-.51.83-.22.23-.49.41-.8.53-.31.12-.66.19-1.04.19s-.73-.06-1.04-.19c-.31-.12-.58-.3-.8-.53-.22-.23-.39-.51-.52-.83-.12-.33-.18-.69-.18-1.1s.06-.77.18-1.09c.12-.33.29-.6.52-.83.22-.23.49-.4.8-.53.31-.12.66-.18,1.04-.18Zm0,4.33c.43,0,.74-.14.95-.43.21-.29.31-.71.31-1.26s-.1-.97-.31-1.26-.52-.43-.95-.43-.75.15-.96.44c-.21.29-.31.71-.31,1.26s.1.97.31,1.26c.21.29.53.43.96.43Z"/></g></g></g></svg>