<svg xmlns="http://www.w3.org/2000/svg" xmlns:xlink="http://www.w3.org/1999/xlink" width="31.916" height="30.994" viewBox="0 0 31.916 30.994">
  <defs>
    <clipPath id="clip-path">
      <rect id="Rectangle_36" data-name="Rectangle 36" width="31.916" height="30.994" transform="translate(0 0)" fill="none"/>
    </clipPath>
  </defs>
  <g id="Group_52" data-name="Group 52" transform="translate(0 0)">
    <g id="Group_51" data-name="Group 51" clip-path="url(#clip-path)">
      <path id="Path_30" data-name="Path 30" d="M5.531,22.852c-.474,0-.958-.008-1.442.01-.061,0-.137.133-.172.218-.278.672-.554,1.344-.815,2.021a.587.587,0,0,1-.656.444c-.3-.024-.6,0-.9-.006-.42-.006-.589-.243-.489-.656.326-1.351.668-2.7.961-4.056a8.9,8.9,0,0,0,.2-2.463c-.411.074-.792.156-1.177.209A.986.986,0,0,1,0,18.171v-.436A7.61,7.61,0,0,1,1.295,16.2a1.083,1.083,0,0,0,.254-.549c.143-.5.4-.612.846-.332.272.171.539.353.82.509a5.088,5.088,0,0,1,2.21,2.911,1.7,1.7,0,0,1,.045.461.845.845,0,0,0,.865.84c.322.01.644.009.966,0a.821.821,0,0,0,.867-.888c-.006-.3.108-.372.379-.36a3.412,3.412,0,0,1,3.275,2.894.391.391,0,0,1-.322.49.408.408,0,0,1-.511-.3c-.089-.255-.154-.519-.262-.764A2.264,2.264,0,0,0,9.8,20.057a13.151,13.151,0,0,1,.386,1.419c.186,1.168.339,2.341.479,3.515.053.448-.117.592-.579.6-.208,0-.416,0-.623,0-.488,0-.552-.046-.719-.515-.234-.655-.478-1.306-.7-1.966a.318.318,0,0,0-.377-.26c-.4.017-.807.005-1.231.005"/>
      <path id="Path_31" data-name="Path 31" d="M15.937,30.994H1.217a2.44,2.44,0,0,1-.373-.014.4.4,0,0,1-.353-.588c.41-.886.832-1.766,1.275-2.635.059-.117.259-.172.4-.233a.682.682,0,0,1,.248-.006q13.549,0,27.1-.009a.763.763,0,0,1,.809.516c.326.741.693,1.463,1.041,2.194.241.508.075.774-.492.775q-2.87,0-5.738,0h-9.2"/>
      <path id="Path_32" data-name="Path 32" d="M15.981,0c.542.278,1.057.54,1.57.805q6.588,3.387,13.174,6.776c.254.131.574.231.476.622s-.421.34-.711.34H15.981Z"/>
      <path id="Path_33" data-name="Path 33" d="M15.969,0V8.529c-.116.006-.226.015-.335.015q-7.122,0-14.244,0a.691.691,0,0,1-.335-.033c-.129-.08-.288-.2-.312-.333a.544.544,0,0,1,.17-.418,2.208,2.208,0,0,1,.514-.286L15.681.143c.081-.042.164-.08.288-.139"/>
      <path id="Path_34" data-name="Path 34" d="M25.6,22.87H24.079c-.269.667-.549,1.356-.826,2.046-.251.622-.25.623-.933.623-.218,0-.437,0-.655,0-.482,0-.644-.229-.521-.7.26-.993.562-1.98.754-2.987.2-1.027.282-2.075.41-3.114a2.127,2.127,0,0,0-.02-.375c-.375.071-.718.137-1.062.2a.994.994,0,0,1-.217.023c-.338-.005-.685-.018-.864-.37s.014-.646.237-.9c.333-.381.7-.734,1.018-1.125a1.558,1.558,0,0,0,.235-.564c.129-.46.405-.577.811-.32s.819.531,1.231.793a5.157,5.157,0,0,1,1.85,2.7,1.329,1.329,0,0,1,.025.4.839.839,0,0,0,.83.841c.342.014.686.013,1.029,0a.8.8,0,0,0,.834-.853c-.007-.327.111-.411.415-.393a3.419,3.419,0,0,1,3.246,2.894.4.4,0,0,1-.3.485.437.437,0,0,1-.551-.284c-.075-.2-.119-.42-.2-.622a2.418,2.418,0,0,0-1.012-1.232,17.759,17.759,0,0,1,.9,4.889c.039.533-.091.661-.637.661-.228,0-.457,0-.686,0a.515.515,0,0,1-.555-.4c-.244-.706-.507-1.406-.749-2.113a.288.288,0,0,0-.331-.233c-.415.015-.83.005-1.268.005"/>
      <path id="Path_35" data-name="Path 35" d="M26.45,12.947c-.544,0-1.061,0-1.578,0-.623,0-1.247.009-1.87-.013a2.422,2.422,0,0,1-1.591-.7.416.416,0,0,1-.144-.255c-.01-.964-.007-1.928-.007-2.913H31.54a13.915,13.915,0,0,1-.173,1.952,2.525,2.525,0,0,1-2.4,1.917c-.517.017-1.035,0-1.581,0v5.843l.362.045c.1.575-.013.708-.575.711h-.529c-.535,0-.649-.142-.563-.711l.372-.044Z"/>
      <path id="Path_36" data-name="Path 36" d="M7.279,18.789l.352.03c.149.531.011.719-.525.722H6.545c-.533,0-.65-.145-.567-.712l.4-.043V12.964c-.114-.006-.224-.016-.333-.017-.946,0-1.892,0-2.837,0A2.646,2.646,0,0,1,.445,10.182c0-.362,0-.724,0-1.109H10.678v1.119c0,.519-.019,1.04.007,1.558a.666.666,0,0,1-.309.626,2.56,2.56,0,0,1-1.521.564c-.517.008-1.035,0-1.576,0Z"/>
      <path id="Path_37" data-name="Path 37" d="M20.725,9.068V11.1a.428.428,0,0,1,0,.062c-.059.348.156.748-.127,1.044a2.331,2.331,0,0,1-1.577.723c-.455.027-.913.014-1.37.015-1.475,0-2.949,0-4.424,0a2.608,2.608,0,0,1-1.845-.7.489.489,0,0,1-.162-.31c-.012-.924-.006-1.848,0-2.772a.516.516,0,0,1,.027-.1Z"/>
      <rect id="Rectangle_35" data-name="Rectangle 35" width="3.099" height="12.894" transform="translate(14.419 13.47)"/>
    </g>
  </g>
</svg>
