<svg xmlns="http://www.w3.org/2000/svg" xmlns:xlink="http://www.w3.org/1999/xlink" width="34" height="31.734" viewBox="0 0 34 31.734">
  <defs>
    <clipPath id="clip-path">
      <rect id="Rectangle_64" data-name="Rectangle 64" width="34" height="31.734" fill="none"/>
    </clipPath>
  </defs>
  <g id="Group_92" data-name="Group 92" transform="translate(0 0)">
    <g id="Group_91" data-name="Group 91" transform="translate(0 0)" clip-path="url(#clip-path)">
      <path id="Path_207" data-name="Path 207" d="M32.359,46.627l-.1-.034V46.6a.563.563,0,0,0,.1.029" transform="translate(-16.657 -24.062)"/>
      <path id="Path_208" data-name="Path 208" d="M30.538,45.256c-.027-.364-.05-.729-.083-1.093-.005-.053-.013-.106-.019-.159-.449.013-.9.032-1.345.055-.054.21-.1.422-.16.648l1.021.357Z" transform="translate(-14.941 -22.725)"/>
      <path id="Path_209" data-name="Path 209" d="M25.732,44.328l.183.064c0-.026,0-.051.006-.077l-.19.013" transform="translate(-13.289 -22.886)"/>
      <path id="Path_210" data-name="Path 210" d="M27.469,44.949l-1.363-.476c0,.016,0,.033-.005.049l1.364.447,0-.02" transform="translate(-13.479 -22.967)"/>
      <path id="Path_211" data-name="Path 211" d="M27.281,37.8c0,.469.057.519.511.532a2.426,2.426,0,0,0,.272,0,2.529,2.529,0,0,0,1.8-.73.582.582,0,0,0,.173-.542,5.314,5.314,0,0,0-.7-1.64c-.464.3-.922.576-1.363.879a1.705,1.705,0,0,0-.691,1.5" transform="translate(-14.089 -18.291)"/>
      <path id="Path_212" data-name="Path 212" d="M27.872,29.107a1.925,1.925,0,0,0-1.77.992.238.238,0,0,0-.024.2,5.238,5.238,0,0,0,.535.736.82.82,0,0,0,.85.247,1.669,1.669,0,0,0,1.11-1.593c-.03-.5-.123-.591-.7-.582" transform="translate(-13.461 -15.032)"/>
      <path id="Path_213" data-name="Path 213" d="M33.856,45.069c-.828-.128-1.658-.245-2.487-.362a70.628,70.628,0,0,0-9.779-.752c-.157,0-.314,0-.472.006-.042.619-.08,1.182-.108,1.6L19.5,45.038,18.477,44.7l-.069.283-1.327-.414c.011-.11.022-.214.032-.316l-.311-.1c-2.538.2-5.063.534-7.584.921a.554.554,0,0,0-.477.795c.353,1.084.717,2.163,1.086,3.242a.568.568,0,0,0,.7.417c2.656-.332,5.307-.7,7.969-.979a32.725,32.725,0,0,1,6.908.058c2.394.261,4.779.61,7.167.922a.57.57,0,0,0,.7-.418q.553-1.617,1.085-3.241a.56.56,0,0,0-.51-.8" transform="translate(-4.492 -22.7)"/>
      <path id="Path_214" data-name="Path 214" d="M33.347,4.813a7.681,7.681,0,0,1-1.235.209A5.028,5.028,0,0,1,26.91.64C26.836.139,26.683,0,26.178,0Q24.291,0,22.4,0L10.8,0c-.5,0-.688.151-.749.585A5.008,5.008,0,0,1,3.606,4.812c-.567-.155-.848.052-.853.645-.007.687,0,1.374,0,2.061a36.459,36.459,0,0,0,.729,6.445,20.743,20.743,0,0,0,2.8,6.988.37.37,0,0,0,.41.221c1.813-.218,3.627-.437,5.442-.638,0-.608-.088-1.887-.046-2.073s.1-.246.307-.207a2.733,2.733,0,0,0,1.429-.108c.135-.047.2-.116.17-.27-.069-.362-.11-.73-.2-1.088-.175-.72-.184-.717-.867-.945-.006,0-.01-.01-.02-.02l1.358-5.464a1.932,1.932,0,0,1-1.28-.589,4.37,4.37,0,0,1-.562-.961,3.021,3.021,0,0,0-.941-1.429,1.076,1.076,0,0,1-.176-.222,2.67,2.67,0,0,1,3.5,1c.036-.092.058-.139.073-.189a1.837,1.837,0,0,1,.914-1.227.227.227,0,0,0,.085-.179.827.827,0,0,0-.534-.711c-.235-.12-.488-.208-.715-.342a.839.839,0,0,1-.283-1.056.661.661,0,0,1,.879-.34,1.11,1.11,0,0,1,.419.3c.2.232.358.493.532.743.27.387.523.788.813,1.158a2.358,2.358,0,0,0,.5.369A1.448,1.448,0,0,0,17.163,5.2a1.623,1.623,0,0,1-.271-.305.653.653,0,0,1-.027-.681.625.625,0,0,1,.6-.349,1,1,0,0,1,.907.826,7.243,7.243,0,0,1,.069.9,1.386,1.386,0,0,0,.559,1.106c.1.074.173.071.242-.041.1-.162.2-.322.313-.478A2.526,2.526,0,0,1,21.2,5.027c.048.327.086.646.142.961A1.585,1.585,0,0,1,20.9,7.422c-.133.142-.285.267-.441.412.119.113.2.2.283.266.6.478,1.2.949,1.8,1.43.792.638,1.585,1.276,2.367,1.927a1.855,1.855,0,0,1,.676,1.475.542.542,0,0,1-.422.6,4.413,4.413,0,0,1-.7.2,4,4,0,0,1-.922.071,3.9,3.9,0,0,1-.808-.206,7.46,7.46,0,0,0-3.219-.325,4.086,4.086,0,0,1-2.825-.589,1.96,1.96,0,0,0-.186-.092l-.035.067A3.078,3.078,0,0,0,18.552,13.9c-.012.214-.019.421-.035.628-.013.167-.037.334-.057.507-.11.019-.214.034-.316.054a.864.864,0,0,0-.756.845,5.548,5.548,0,0,0,.115.816.362.362,0,0,0,.426.32,3.691,3.691,0,0,0,.4-.064c-.051.753-.132,1.943-.21,3.109,1.257-.009,2.515.032,3.77.137,2.759.231,5.507.588,8.261.877a.439.439,0,0,0,.348-.162,19.338,19.338,0,0,0,2.14-4.644,33.135,33.135,0,0,0,1.29-6.74c.12-1.379.156-2.766.211-4.151.02-.51-.3-.728-.8-.62" transform="translate(-1.42 0)"/>
      <path id="Path_215" data-name="Path 215" d="M28.336,60.244c-1.366-.9-2.746-1.784-4.09-2.718-.78-.541-1.5-1.165-2.321-1.807a42.52,42.52,0,0,1,13.1-.015,41.253,41.253,0,0,1-6.34,4.54Z" transform="translate(-11.323 -28.509)"/>
      <path id="Path_216" data-name="Path 216" d="M61.943,51.6a3.029,3.029,0,0,1-.6.52c-.531.258-1.09.457-1.672.694.373.472.722.92,1.079,1.363.218.27.45.538.209.9s-.561.244-.882.158c-1.843-.489-3.687-.973-5.529-1.466a2.808,2.808,0,0,1-.439-.2c.013-.034.026-.069.038-.1.606.086,1.212.166,1.817.26a1.683,1.683,0,0,0,1.971-1.165c.262-.756.508-1.518.773-2.315.456.121.89.238,1.325.353.416.109.83.228,1.25.32a.827.827,0,0,1,.661.542Z" transform="translate(-27.943 -25.951)"/>
      <path id="Path_217" data-name="Path 217" d="M21.777,43.954a70.778,70.778,0,0,1,9.778.753c.83.117,1.66.234,2.487.362a.56.56,0,0,1,.51.8c-.352,1.084-.716,2.163-1.085,3.241a.569.569,0,0,1-.7.419c-2.389-.312-4.773-.662-7.167-.922a32.66,32.66,0,0,0-6.908-.058c-2.661.276-5.312.647-7.968.979a.568.568,0,0,1-.7-.417c-.369-1.078-.734-2.159-1.086-3.242a.554.554,0,0,1,.477-.794,81.34,81.34,0,0,1,12.371-1.12" transform="translate(-4.588 -22.699)"/>
      <path id="Path_218" data-name="Path 218" d="M2.237,52.823c-.616-.252-1.183-.492-1.756-.716C.195,52-.019,51.83,0,51.5s.242-.469.545-.544c.9-.227,1.8-.471,2.737-.719.125.367.244.713.361,1.06.149.441.289.884.446,1.322a1.674,1.674,0,0,0,1.9,1.122c.563-.087,1.128-.165,1.692-.245a1.045,1.045,0,0,1,.2.045,4.27,4.27,0,0,1-.539.238q-2.83.757-5.664,1.5a.589.589,0,0,1-.741-.212.606.606,0,0,1,.121-.763c.388-.478.764-.967,1.173-1.487" transform="translate(0 -25.945)"/>
    </g>
  </g>
</svg>
