<?xml version="1.0" encoding="UTF-8"?><svg id="Layer_2" xmlns="http://www.w3.org/2000/svg" viewBox="0 0 39.31 50.28"><defs><style>.cls-1{fill:#fff;}.cls-2{isolation:isolate;}</style></defs><g id="Layer_1-2"><path class="cls-1" d="m39.31,19.67c-.08,10.83-8.6,19.33-19.08,19.62C9.07,39.6.06,30.7,0,19.75-.06,8.95,8.57.09,19.46,0c11.01-.09,19.79,8.67,19.84,19.67Zm-5.56,9.51c4.59-6.64,3.96-16.44-2.97-22.44C23.96.83,13.64,1.3,7.37,7.86c-6.23,6.51-5.79,15.76-1.78,21.31,3.9-3.84,8.58-5.89,14.06-5.89,5.48,0,10.17,2.05,14.09,5.91Z"/><path class="cls-1" d="m19.69,5.23c4.29-.01,7.81,3.52,7.83,7.85.02,4.3-3.51,7.86-7.81,7.87-4.35.01-7.91-3.5-7.92-7.81,0-4.4,3.49-7.9,7.89-7.91Z"/><g class="cls-2"><path class="cls-1" d="m8.25,46h.32c.13,0,.23-.02.31-.05.08-.03.16-.09.22-.17l2-2.53c.08-.11.17-.18.26-.22.09-.04.21-.06.35-.06h1.16l-2.43,3.01c-.14.18-.29.31-.45.39.11.04.21.1.3.17.09.07.17.17.25.28l2.51,3.38h-1.18c-.16,0-.28-.02-.36-.07s-.14-.11-.2-.2l-2.05-2.67c-.06-.09-.14-.15-.22-.19s-.2-.05-.36-.05h-.43v3.18h-1.34v-7.23h1.34v3.03Z"/><path class="cls-1" d="m15.47,44.99c.38,0,.73.06,1.04.18.31.12.58.3.8.53s.39.5.51.83c.12.33.18.69.18,1.09s-.06.77-.18,1.1c-.12.33-.29.6-.51.83-.22.23-.49.41-.8.53-.31.12-.66.19-1.04.19s-.73-.06-1.04-.19c-.31-.12-.58-.3-.8-.53-.22-.23-.39-.51-.52-.83-.12-.33-.18-.69-.18-1.1s.06-.77.18-1.09c.12-.33.29-.6.52-.83.22-.23.49-.4.8-.53.31-.12.66-.18,1.04-.18Zm0,4.33c.43,0,.74-.14.95-.43.21-.29.31-.71.31-1.26s-.1-.97-.31-1.26-.52-.43-.95-.43-.75.15-.96.44c-.21.29-.31.71-.31,1.26s.1.97.31,1.26c.21.29.53.43.96.43Z"/><path class="cls-1" d="m20.1,45.7c.1-.1.21-.2.33-.29.12-.09.24-.16.37-.23.13-.06.27-.11.41-.14s.31-.05.48-.05c.28,0,.53.05.75.14.22.09.4.23.54.4.15.17.25.38.33.62s.11.5.11.79v3.26h-1.23v-3.26c0-.31-.07-.56-.22-.73-.14-.17-.36-.26-.65-.26-.21,0-.41.05-.6.14-.19.1-.36.23-.53.4v3.71h-1.24v-5.13h.75c.16,0,.26.08.32.22l.08.41Z"/><path class="cls-1" d="m26.22,50.28c-.45,0-.79-.13-1.03-.38-.24-.25-.36-.6-.36-1.04v-2.87h-.52c-.07,0-.12-.02-.17-.06-.05-.04-.07-.11-.07-.2v-.49l.83-.13.26-1.4c.02-.07.05-.12.09-.15.05-.04.11-.06.18-.06h.64v1.62h1.37v.88h-1.37v2.78c0,.16.04.29.12.38s.19.13.32.13c.08,0,.14,0,.19-.03.05-.02.1-.04.13-.06.04-.02.07-.04.1-.06.03-.02.06-.03.09-.03.04,0,.07,0,.09.03s.05.05.08.08l.37.6c-.18.15-.39.26-.62.34-.23.08-.48.12-.73.12Z"/><path class="cls-1" d="m30.46,44.99c.38,0,.73.06,1.04.18.31.12.58.3.8.53s.39.5.51.83c.12.33.18.69.18,1.09s-.06.77-.18,1.1c-.12.33-.29.6-.51.83-.22.23-.49.41-.8.53-.31.12-.66.19-1.04.19s-.73-.06-1.04-.19c-.31-.12-.58-.3-.8-.53-.22-.23-.39-.51-.52-.83-.12-.33-.18-.69-.18-1.1s.06-.77.18-1.09c.12-.33.29-.6.52-.83.22-.23.49-.4.8-.53.31-.12.66-.18,1.04-.18Zm0,4.33c.43,0,.74-.14.95-.43.21-.29.31-.71.31-1.26s-.1-.97-.31-1.26-.52-.43-.95-.43-.75.15-.96.44c-.21.29-.31.71-.31,1.26s.1.97.31,1.26c.21.29.53.43.96.43Z"/></g></g></svg>