<?xml version="1.0" encoding="UTF-8"?><svg id="Layer_2" xmlns="http://www.w3.org/2000/svg" viewBox="0 0 39.93 50.67"><defs><style>.cls-1{fill:#fff;}.cls-2{isolation:isolate;}</style></defs><g id="Layer_1-2"><path class="cls-1" d="m1.02,39.94C.26,39.68,0,39.14,0,38.35c.01-7.27,0-14.53,0-21.8,0-.93.22-1.26,1.07-1.6,3.97-1.59,7.95-3.18,11.92-4.78.5-.2.96-.21,1.46,0,2.35.96,4.72,1.89,7.08,2.84.73.29,1.06.88.89,1.52-.21.79-.97,1.13-1.8.8-1.75-.69-3.49-1.4-5.24-2.09-.12-.05-.24-.09-.41-.15v.41c0,6.32,0,12.63,0,18.95,0,.22-.01.4.27.51,3.17,1.25,6.34,2.52,9.51,3.79.05.02.09.03.2.07v-.47c0-4.12,0-8.24,0-12.36,0-.17,0-.34.02-.51.11-.6.64-1.03,1.25-1.02.62.01,1.14.48,1.21,1.11.02.15.01.31.01.47,0,4.09,0,8.19,0,12.28v.5c.14-.05.25-.08.36-.12,3.1-1.24,6.19-2.48,9.29-3.71.26-.1.34-.23.34-.51,0-4.5,0-8.99,0-13.49,0-.22,0-.45.07-.65.15-.51.53-.8,1.05-.86.53-.06.93.17,1.21.63.06.1.11.2.17.3v15.52c-.18.57-.6.86-1.14,1.07-2.76,1.09-5.51,2.19-8.26,3.3-1.34.54-2.68,1.09-4.02,1.64h-.62s-.05-.06-.09-.07c-3.92-1.57-7.84-3.14-11.77-4.69-.18-.07-.43-.07-.61,0-2.72,1.07-5.44,2.16-8.16,3.25-1.23.5-2.46,1-3.7,1.51h-.55ZM12.48,13.1c-.16.06-.28.1-.4.15-3.07,1.23-6.14,2.46-9.22,3.68-.29.12-.38.26-.38.56,0,6.3,0,12.61,0,18.91,0,.14,0,.27,0,.45.18-.07.3-.11.41-.16,3.06-1.22,6.12-2.45,9.18-3.66.31-.12.39-.27.39-.59,0-6.29,0-12.58,0-18.87v-.46Z"/><path class="cls-1" d="m39.93,9.13c-.26,1.75-.98,3.32-1.84,4.84-1.43,2.5-3.17,4.78-5.02,6.98-.3.36-.6.72-.91,1.07-.56.61-1.37.62-1.91,0-2.48-2.86-4.83-5.82-6.56-9.21-.55-1.09-1.03-2.21-1.16-3.45-.21-2.07.34-3.95,1.54-5.62C26.68.1,31.22-1.03,35.21,1.01c2.66,1.37,4.18,3.62,4.64,6.58.02.13.05.25.08.38v1.17Zm-8.75,10.19c.16-.2.28-.34.4-.48,1.95-2.42,3.82-4.89,5.16-7.72.39-.81.71-1.65.68-2.57-.11-3.71-3.4-6.46-7.09-5.99-3.73.47-6.76,4.77-4.65,8.69,1.08,2,2.28,3.9,3.64,5.7.59.79,1.22,1.55,1.86,2.36Z"/><path class="cls-1" d="m34.95,8.75c0,2.04-1.71,3.75-3.75,3.74-2.03,0-3.71-1.68-3.73-3.72-.02-2.03,1.68-3.75,3.73-3.76,2.03-.01,3.75,1.7,3.75,3.74Zm-2.49,0c0-.68-.56-1.24-1.24-1.24-.69,0-1.26.57-1.25,1.27.01.68.58,1.23,1.26,1.22.68,0,1.23-.57,1.23-1.25Z"/><g id="Tilføj_nyt_armbånd" class="cls-2"><g class="cls-2"><path class="cls-1" d="m12.94,46.39h.31c.13,0,.23-.02.32-.05.08-.03.16-.09.21-.17l2-2.53c.08-.11.17-.18.26-.22.09-.04.21-.06.35-.06h1.16l-2.43,3.01c-.14.18-.29.31-.45.39.11.04.21.1.3.17.09.07.17.17.25.28l2.51,3.38h-1.19c-.16,0-.28-.02-.36-.07s-.14-.11-.2-.2l-2.04-2.67c-.06-.09-.14-.15-.22-.19-.08-.04-.2-.05-.36-.05h-.42v3.18h-1.34v-7.23h1.34v3.03Z"/><path class="cls-1" d="m20.16,45.38c.38,0,.73.06,1.04.18.31.12.58.3.8.53s.39.5.51.83c.12.33.18.69.18,1.09s-.06.77-.18,1.1c-.12.33-.29.6-.51.83-.22.23-.49.41-.8.53-.31.12-.66.19-1.04.19s-.73-.06-1.04-.19c-.31-.12-.58-.3-.8-.53-.22-.23-.39-.51-.51-.83-.12-.33-.18-.69-.18-1.1s.06-.77.18-1.09c.12-.33.29-.6.51-.83s.49-.4.8-.53c.31-.12.66-.18,1.04-.18Zm0,4.33c.43,0,.74-.14.95-.43.21-.29.31-.71.31-1.26s-.1-.97-.31-1.26-.52-.43-.95-.43-.75.15-.96.44c-.21.29-.31.71-.31,1.26s.1.97.31,1.26c.21.29.53.43.96.43Z"/><path class="cls-1" d="m24.8,46.35c.16-.31.35-.55.57-.72.22-.17.48-.26.78-.26.24,0,.43.05.57.15l-.08.93c-.02.06-.04.1-.07.13-.03.03-.07.04-.13.04-.05,0-.12,0-.22-.02s-.19-.03-.29-.03c-.14,0-.26.02-.36.06-.11.04-.2.1-.29.17-.08.08-.16.17-.22.27-.07.11-.13.23-.18.37v3.16h-1.24v-5.13h.73c.13,0,.21.02.26.07s.08.13.1.24l.07.58Z"/><path class="cls-1" d="m29.07,50.67c-.45,0-.79-.13-1.03-.38-.24-.25-.36-.6-.36-1.04v-2.87h-.53c-.07,0-.12-.02-.17-.06-.05-.04-.07-.11-.07-.2v-.49l.83-.13.26-1.4c.02-.07.05-.12.1-.15.05-.04.11-.06.18-.06h.64v1.62h1.37v.88h-1.37v2.78c0,.16.04.29.12.38.08.09.19.13.32.13.08,0,.14,0,.19-.03s.1-.04.13-.06.07-.04.1-.06.06-.03.09-.03c.04,0,.07,0,.09.03.02.02.05.05.07.08l.37.6c-.18.15-.39.26-.62.34-.23.08-.47.12-.72.12Z"/></g></g></g></svg>