<?xml version="1.0" encoding="UTF-8"?><svg id="Layer_2" xmlns="http://www.w3.org/2000/svg" xmlns:xlink="http://www.w3.org/1999/xlink" viewBox="0 0 34 31.73"><defs><style>.cls-1{fill:none;}.cls-2{clip-path:url(#clippath);}</style><clipPath id="clippath"><rect class="cls-1" width="34" height="31.73"/></clipPath></defs><g id="Layer_1-2"><g id="Group_92"><g class="cls-2"><g id="Group_91"><path id="Path_207" d="m15.7,22.56l-.1-.03h0s.07.03.1.04"/><path id="Path_208" d="m15.6,22.53c-.03-.36-.05-.73-.08-1.09,0-.05-.01-.11-.02-.16-.45.01-.9.03-1.34.06-.05.21-.1.42-.16.65l1.02.36.59.19Z"/><path id="Path_209" d="m12.44,21.44l.18.06s0-.05,0-.08h-.19"/><path id="Path_210" d="m13.99,21.98l-1.36-.48s0,.03,0,.05l1.36.45v-.02"/><path id="Path_211" d="m13.19,19.51c0,.47.06.52.51.53.09,0,.18,0,.27,0,.67,0,1.32-.26,1.8-.73.15-.14.21-.34.17-.54-.14-.58-.38-1.14-.7-1.64-.46.3-.92.58-1.36.88-.47.35-.73.91-.69,1.5"/><path id="Path_212" d="m14.41,14.08c-.73-.03-1.42.35-1.77.99-.04.06-.05.13-.02.2.16.26.34.51.53.74.21.24.54.34.85.25.67-.24,1.12-.88,1.11-1.59-.03-.5-.12-.59-.7-.58"/><path id="Path_213" d="m29.36,22.37c-.83-.13-1.66-.24-2.49-.36-3.24-.48-6.51-.73-9.78-.75-.16,0-.31,0-.47,0-.04.62-.08,1.18-.11,1.6l-1.51-.52-1.02-.34-.07.28-1.33-.41c.01-.11.02-.21.03-.32l-.31-.1c-2.54.2-5.06.53-7.58.92-.31.01-.54.27-.53.58,0,.08.02.15.05.22.35,1.08.72,2.16,1.09,3.24.07.31.38.49.68.42,0,0,.01,0,.02,0,2.66-.33,5.31-.7,7.97-.98,2.3-.22,4.61-.21,6.91.06,2.39.26,4.78.61,7.17.92.3.08.62-.1.7-.41,0,0,0,0,0-.01.37-1.08.73-2.16,1.08-3.24.13-.28.01-.61-.27-.75-.08-.04-.16-.05-.24-.05"/><path id="Path_214" d="m31.93,4.81c-.41.1-.82.17-1.24.21-2.61.11-4.87-1.79-5.2-4.38-.07-.5-.23-.64-.73-.64h-15.38c-.5,0-.69.15-.75.58-.31,2.75-2.79,4.73-5.54,4.42-.31-.03-.61-.1-.91-.19-.57-.16-.85.05-.85.64,0,.69,0,1.37,0,2.06.05,2.17.3,4.32.73,6.44.5,2.48,1.45,4.85,2.8,6.99.07.16.24.25.41.22,1.81-.22,3.63-.44,5.44-.64,0-.61-.09-1.89-.05-2.07s.1-.25.31-.21c.48.09.97.05,1.43-.11.14-.05.2-.12.17-.27-.07-.36-.11-.73-.2-1.09-.18-.72-.18-.72-.87-.94,0,0-.01-.01-.02-.02l1.36-5.46c-.49-.03-.94-.24-1.28-.59-.23-.3-.42-.62-.56-.96-.17-.56-.5-1.05-.94-1.43-.07-.07-.13-.14-.18-.22,1.25-.64,2.78-.2,3.5,1,.04-.09.06-.14.07-.19.11-.52.45-.97.91-1.23.05-.04.09-.11.09-.18-.02-.32-.23-.6-.53-.71-.23-.12-.49-.21-.72-.34-.34-.23-.46-.68-.28-1.06.14-.34.53-.49.87-.34,0,0,0,0,0,0,.16.07.3.17.42.3.2.23.36.49.53.74.27.39.52.79.81,1.16.15.14.32.27.5.37.18-.52.05-1.09-.33-1.48-.1-.09-.19-.19-.27-.3-.14-.2-.15-.47-.03-.68.11-.23.35-.36.6-.35.46.04.83.38.91.83.04.3.06.6.07.9,0,.44.21.85.56,1.11.1.07.17.07.24-.04.1-.16.2-.32.31-.48.37-.59.96-1.01,1.65-1.15.05.33.09.65.14.96.1.52-.06,1.06-.44,1.43-.13.14-.28.27-.44.41.12.11.2.2.28.27.6.48,1.2.95,1.8,1.43.79.64,1.58,1.28,2.37,1.93.44.36.69.91.68,1.48.04.28-.15.54-.42.6-.23.09-.46.15-.7.2-.3.06-.61.08-.92.07-.28-.04-.55-.11-.81-.21-1.04-.34-2.14-.45-3.22-.32-.98.15-1.99-.06-2.83-.59-.06-.03-.12-.06-.19-.09l-.03.07c.5.68,1.25,1.13,2.08,1.24-.01.21-.02.42-.03.63-.01.17-.04.33-.06.51-.11.02-.21.03-.32.05-.43.05-.75.41-.76.85.02.27.06.55.11.82.02.2.2.34.4.32,0,0,.02,0,.03,0,.13-.01.27-.04.4-.06-.05.75-.13,1.94-.21,3.11,1.26,0,2.51.03,3.77.14,2.76.23,5.51.59,8.26.88.13,0,.26-.06.35-.16.92-1.45,1.64-3.01,2.14-4.64.66-2.2,1.09-4.45,1.29-6.74.12-1.38.16-2.77.21-4.15.02-.51-.3-.73-.8-.62"/><path id="Path_215" d="m17.01,31.73c-1.37-.9-2.75-1.78-4.09-2.72-.78-.54-1.5-1.17-2.32-1.81,4.34-.68,8.76-.69,13.1-.01-1.97,1.71-4.09,3.23-6.34,4.54h-.35Z"/><path id="Path_216" d="m34,25.65c-.18.2-.38.37-.6.52-.53.26-1.09.46-1.67.69.37.47.72.92,1.08,1.36.22.27.45.54.21.9s-.56.24-.88.16c-1.84-.49-3.69-.97-5.53-1.47-.15-.05-.3-.12-.44-.2.01-.03.03-.07.04-.1.61.09,1.21.17,1.82.26.86.19,1.72-.32,1.97-1.17.26-.76.51-1.52.77-2.31.46.12.89.24,1.33.35.42.11.83.23,1.25.32.3.04.56.25.66.54v.14Z"/><path id="Path_217" d="m17.19,21.25c3.27.02,6.54.28,9.78.75.83.12,1.66.23,2.49.36.31,0,.56.25.56.56,0,.08-.02.17-.05.24-.35,1.08-.72,2.16-1.08,3.24-.07.31-.38.5-.68.42,0,0-.01,0-.02,0-2.39-.31-4.77-.66-7.17-.92-2.29-.26-4.61-.28-6.91-.06-2.66.28-5.31.65-7.97.98-.3.08-.61-.1-.7-.4,0,0,0-.01,0-.02-.37-1.08-.73-2.16-1.09-3.24-.13-.28-.02-.61.26-.74.07-.03.14-.05.22-.05,4.09-.69,8.22-1.06,12.37-1.12"/><path id="Path_218" d="m2.24,26.88c-.62-.25-1.18-.49-1.76-.72-.29-.11-.5-.28-.48-.61s.24-.47.55-.54c.9-.23,1.8-.47,2.74-.72.12.37.24.71.36,1.06.15.44.29.88.45,1.32.26.8,1.07,1.28,1.9,1.12.56-.09,1.13-.17,1.69-.24.07,0,.13.02.2.04-.17.09-.35.17-.54.24-1.89.5-3.77,1-5.66,1.5-.27.12-.58.03-.74-.21-.15-.25-.1-.57.12-.76.39-.48.76-.97,1.17-1.49"/></g></g></g></g></svg>