<svg xmlns="http://www.w3.org/2000/svg" xmlns:xlink="http://www.w3.org/1999/xlink" width="34.127" height="22.836" viewBox="0 0 34.127 22.836">
  <defs>
    <clipPath id="clip-path">
      <rect id="Rectangle_85" data-name="Rectangle 85" width="34.127" height="22.836" transform="translate(0 0)" fill="none"/>
    </clipPath>
  </defs>
  <g id="Group_123" data-name="Group 123" transform="translate(0 0)">
    <g id="Group_122" data-name="Group 122" clip-path="url(#clip-path)">
      <path id="Path_237" data-name="Path 237" d="M2.143,15.109c-.6-.582-1.086-1.031-1.551-1.495a1.424,1.424,0,0,1,.013-2.321A12.511,12.511,0,0,1,8.9,7.785a3.083,3.083,0,0,1,.658,0,2.969,2.969,0,0,0,3.128-1.307,7.262,7.262,0,0,1,.889-.9,1.06,1.06,0,0,1,1.536-.083,1.029,1.029,0,0,1-.057,1.53,3.4,3.4,0,0,0-.622.709H30.406c0-.019.006-.076-.019-.1a15.517,15.517,0,0,0-9.768-5.359c-1.854-.209-3.741-.138-5.614-.172a.765.765,0,0,0-.455.257C13.384,3.5,12.231,4.667,11.069,5.821A1.034,1.034,0,0,1,9.7,6.066a1,1,0,0,1-.217-1.571C10.8,3.142,12.138,1.8,13.51.5A1.846,1.846,0,0,1,14.648.032c2.882-.035,5.777-.18,8.6.642A17.189,17.189,0,0,1,30.5,4.838c1.057,1.02,2.09,2.064,3.144,3.088a1.451,1.451,0,0,1,.47,1.124c-.018,1.419.04,2.84-.02,4.256a5.973,5.973,0,0,1-3.462,5.21.934.934,0,0,0-.352.536,5.194,5.194,0,0,1-9.953.125c-.045-.144-.087-.29-.147-.489-1.084,0-2.181.048-3.272-.014-1-.056-1.636.042-2.066,1.218a4.844,4.844,0,0,1-4.834,2.934,5.118,5.118,0,0,1-4.686-3.57.678.678,0,0,0-.8-.582,23.082,23.082,0,0,1-2.63-.057A1.4,1.4,0,0,1,.617,17.378a1.421,1.421,0,0,1,.416-1.3c.314-.327.683-.6,1.11-.971m23.136,5.639a3.1,3.1,0,1,0-3.11-3.126,3.118,3.118,0,0,0,3.11,3.126M10.263,14.541a3.1,3.1,0,1,0,3.079,3.14,3.077,3.077,0,0,0-3.079-3.14"/>
      <path id="Path_238" data-name="Path 238" d="M26.833,17.63A1.546,1.546,0,1,0,25.314,19.2a1.555,1.555,0,0,0,1.519-1.574" fill="#fff"/>
      <path id="Path_239" data-name="Path 239" d="M10.227,19.2a1.56,1.56,0,0,0,.045-3.12,1.56,1.56,0,1,0-.045,3.12" fill="#fff"/>
      <path id="Path_240" data-name="Path 240" d="M26.833,17.63a1.545,1.545,0,1,1-1.545-1.545,1.563,1.563,0,0,1,1.545,1.545"/>
      <path id="Path_241" data-name="Path 241" d="M10.227,19.2a1.56,1.56,0,1,1,1.571-1.54,1.593,1.593,0,0,1-1.571,1.54"/>
    </g>
  </g>
</svg>
