<svg xmlns="http://www.w3.org/2000/svg" xmlns:xlink="http://www.w3.org/1999/xlink" width="27.074" height="16.158" viewBox="0 0 27.074 16.158">
  <defs>
    <clipPath id="clip-path">
      <rect id="Rectangle_72" data-name="Rectangle 72" width="27.074" height="16.158" fill="none"/>
    </clipPath>
  </defs>
  <g id="Group_105" data-name="Group 105" transform="translate(0 0)">
    <g id="Group_101" data-name="Group 101" transform="translate(0 0)" clip-path="url(#clip-path)">
      <path id="Path_220" data-name="Path 220" d="M0,.674A.988.988,0,0,1,1.068,0C3.307.01,5.543,0,7.782,0h.294V16.151H7.782c-2.239,0-4.475-.007-6.714,0A.993.993,0,0,1,0,15.481V10.775a1.008,1.008,0,0,1,.974-.664,2.037,2.037,0,0,0,0-4.068A1.017,1.017,0,0,1,0,5.379Z" transform="translate(0 0.001)" fill="#fff"/>
      <path id="Path_221" data-name="Path 221" d="M2.938,16.148V.017C3.025.014,3.122,0,3.212,0Q11.2,0,19.2,0a.883.883,0,0,1,1.008,1V5.023a.871.871,0,0,1-.928,1,2.045,2.045,0,0,0-.434,4.024,3.6,3.6,0,0,0,.574.077.832.832,0,0,1,.781.818q.015,2.192,0,4.385a.829.829,0,0,1-.714.8,2.421,2.421,0,0,1-.347.02H2.938" transform="translate(6.866 0.004)" fill="#fff"/>
    </g>
  </g>
</svg>
