<?xml version="1.0" encoding="UTF-8"?><svg id="Layer_2" xmlns="http://www.w3.org/2000/svg" viewBox="0 0 39.94 52.39"><defs><style>.cls-1{fill:#fff;}.cls-2{isolation:isolate;}</style></defs><g id="Layer_1-2"><g id="Tilføj_nyt_armbånd" class="cls-2"><g class="cls-2"><path class="cls-1" d="m3.74,43.35c.48,0,.9.06,1.25.17s.65.27.88.47c.23.2.4.45.51.73.11.28.17.59.17.93s-.06.67-.17.96c-.12.29-.29.54-.52.75-.23.21-.53.37-.88.49-.35.12-.76.17-1.23.17h-1v2.54h-1.34v-7.23h2.35Zm0,3.64c.25,0,.46-.03.64-.09.18-.06.34-.15.46-.26.12-.12.21-.25.27-.42s.09-.35.09-.55-.03-.37-.09-.53c-.06-.16-.15-.29-.27-.4-.12-.11-.27-.19-.45-.25-.18-.06-.4-.09-.65-.09h-1v2.6h1Z"/><path class="cls-1" d="m8.47,46.34c.16-.31.35-.55.57-.72.22-.17.48-.26.78-.26.24,0,.43.05.57.15l-.08.93c-.02.06-.04.1-.07.13-.03.03-.07.04-.13.04-.05,0-.12,0-.22-.02s-.19-.03-.29-.03c-.14,0-.26.02-.36.06-.11.04-.2.1-.29.17-.08.08-.16.17-.22.27-.07.11-.13.23-.18.37v3.16h-1.24v-5.13h.73c.13,0,.21.02.26.07s.08.13.1.24l.07.58Z"/><path class="cls-1" d="m13.16,45.37c.38,0,.73.06,1.04.18.31.12.58.3.8.53s.39.5.51.83c.12.33.18.69.18,1.09s-.06.77-.18,1.1c-.12.33-.29.6-.51.83-.22.23-.49.41-.8.53-.31.12-.66.19-1.04.19s-.73-.06-1.04-.19c-.31-.12-.58-.3-.8-.53-.22-.23-.39-.51-.51-.83-.12-.33-.18-.69-.18-1.1s.06-.77.18-1.09c.12-.33.29-.6.51-.83s.49-.4.8-.53c.31-.12.66-.18,1.04-.18Zm0,4.33c.43,0,.74-.14.95-.43.21-.29.31-.71.31-1.26s-.1-.97-.31-1.26-.52-.43-.95-.43-.75.15-.96.44c-.21.29-.31.71-.31,1.26s.1.97.31,1.26c.21.29.53.43.96.43Z"/><path class="cls-1" d="m21.09,45.63v.46c0,.15-.09.24-.26.27l-.46.08c.07.18.11.37.11.58,0,.25-.05.48-.15.69-.1.2-.24.38-.42.52-.18.14-.39.25-.64.33s-.51.12-.79.12c-.1,0-.2,0-.29-.01-.09,0-.18-.02-.27-.04-.16.1-.24.21-.24.33,0,.1.05.18.14.23.09.05.22.08.38.1.16.02.33.03.53.04.2,0,.41.02.62.03.21.02.42.05.62.09s.38.11.54.2c.16.09.28.21.38.37.1.15.14.35.14.6,0,.23-.06.45-.17.66-.11.21-.27.4-.49.57s-.47.3-.78.4c-.31.1-.66.15-1.05.15s-.72-.04-1.01-.11c-.29-.08-.52-.17-.71-.3-.19-.12-.33-.27-.42-.43s-.14-.33-.14-.51c0-.24.07-.44.22-.6.15-.16.34-.29.6-.39-.14-.07-.25-.16-.33-.28-.08-.12-.12-.27-.12-.46,0-.08.01-.16.04-.24s.07-.16.12-.24.12-.16.21-.23c.08-.07.18-.14.29-.19-.26-.14-.46-.33-.61-.56s-.22-.51-.22-.82c0-.25.05-.48.15-.69.1-.21.24-.38.42-.53.18-.15.4-.26.64-.33.25-.08.52-.11.81-.11.22,0,.43.02.62.07s.37.11.53.2h1.47Zm-1.23,5.19c0-.1-.03-.18-.09-.25-.06-.06-.14-.11-.25-.15-.1-.04-.22-.06-.36-.08-.14-.02-.29-.03-.44-.04-.16,0-.31-.02-.48-.02s-.33-.02-.48-.04c-.14.08-.25.17-.33.27-.08.1-.13.22-.13.36,0,.09.02.17.07.25.04.08.12.15.21.2.1.06.23.1.38.13.16.03.35.05.58.05s.43-.02.59-.05c.17-.03.3-.08.41-.14s.19-.13.24-.22.08-.18.08-.28Zm-1.4-2.92c.15,0,.29-.02.4-.06.11-.04.21-.1.28-.17s.13-.16.17-.27c.04-.1.06-.22.06-.34,0-.25-.08-.45-.23-.6-.15-.15-.38-.22-.68-.22s-.53.07-.68.22c-.15.15-.23.35-.23.6,0,.12.02.23.06.33.04.1.1.19.17.27.07.08.17.13.28.17.12.04.25.06.4.06Z"/><path class="cls-1" d="m23.04,46.34c.16-.31.35-.55.57-.72.22-.17.48-.26.78-.26.24,0,.43.05.57.15l-.08.93c-.02.06-.04.1-.07.13-.03.03-.07.04-.13.04-.05,0-.12,0-.22-.02-.1-.02-.19-.03-.29-.03-.14,0-.26.02-.37.06s-.2.1-.29.17c-.08.08-.16.17-.23.27-.06.11-.12.23-.18.37v3.16h-1.24v-5.13h.72c.13,0,.21.02.27.07.05.04.08.13.1.24l.08.58Z"/><path class="cls-1" d="m25.42,46.17c.59-.54,1.3-.81,2.13-.81.3,0,.57.05.8.15.24.1.44.23.6.41.16.18.29.38.37.63s.13.51.13.8v3.24h-.56c-.12,0-.21-.02-.27-.05s-.11-.11-.15-.21l-.11-.37c-.13.12-.26.22-.38.31-.12.09-.25.16-.39.22-.13.06-.28.11-.43.14-.15.03-.32.05-.5.05-.22,0-.42-.03-.6-.09-.18-.06-.34-.15-.48-.26-.13-.12-.24-.26-.31-.44-.07-.17-.11-.38-.11-.6,0-.13.02-.26.07-.39.04-.13.11-.25.21-.37.1-.12.23-.23.38-.33.16-.1.35-.19.58-.27.23-.08.49-.14.8-.19.3-.05.65-.08,1.04-.09v-.3c0-.34-.07-.6-.22-.76-.15-.17-.36-.25-.64-.25-.2,0-.37.02-.5.07s-.25.1-.35.16c-.1.06-.19.11-.27.16s-.17.07-.27.07c-.09,0-.16-.02-.22-.07-.06-.04-.11-.1-.15-.16l-.22-.4Zm2.83,2.22c-.36.02-.66.05-.9.09s-.44.1-.58.17c-.15.07-.25.15-.31.25-.06.09-.1.19-.1.3,0,.22.06.37.19.46.13.09.29.14.5.14.25,0,.47-.05.66-.14.19-.09.37-.23.54-.42v-.87Z"/><path class="cls-1" d="m30.61,50.58v-5.13h.75c.16,0,.26.08.32.22l.08.38c.09-.1.18-.19.28-.27.1-.08.2-.16.31-.21.11-.06.23-.11.36-.14s.27-.05.42-.05c.32,0,.59.09.8.26.21.17.36.41.47.7.08-.17.18-.32.3-.44s.25-.22.4-.3c.14-.08.3-.13.46-.17.16-.04.32-.05.49-.05.28,0,.54.04.75.13.22.09.41.21.56.38.15.17.26.37.34.61.08.24.12.51.12.83v3.26h-1.24v-3.26c0-.33-.07-.57-.21-.74s-.35-.25-.63-.25c-.13,0-.24.02-.35.07-.11.04-.2.11-.29.19-.08.08-.15.18-.19.31-.05.12-.07.27-.07.43v3.26h-1.24v-3.26c0-.34-.07-.59-.21-.75-.14-.16-.34-.24-.61-.24-.18,0-.35.04-.5.13-.15.09-.3.21-.43.36v3.75h-1.24Z"/></g></g><path class="cls-1" d="m32.91,39.92H7.02c-.07-.02-.14-.06-.22-.07-3.28-.41-5.88-2.76-6.62-5.96C.12,33.58.06,33.28,0,32.98c0-7.67,0-15.34,0-23,.02-.07.06-.14.07-.21.48-3.61,3.44-6.41,7.07-6.66.67-.04,1.34,0,2.06,0,0-.53,0-.98,0-1.43C9.21.71,9.85.01,10.74,0c.9-.01,1.58.69,1.58,1.66,0,.45,0,.9,0,1.37h15.29c0-.46,0-.9,0-1.34,0-.98.65-1.69,1.55-1.69.9,0,1.56.7,1.57,1.68,0,.45,0,.9,0,1.39.47,0,.9,0,1.33,0,4.57-.03,7.85,3.59,7.86,7.6.02,7.22.02,14.45,0,21.67-.01,3.49-2.51,6.56-5.91,7.36-.36.09-.73.15-1.1.23ZM3.12,15.39c0,.16,0,.29,0,.42,0,5.43,0,10.86,0,16.29,0,2.67,2,4.69,4.68,4.69,8.11,0,16.22,0,24.33,0,2.68,0,4.68-2.02,4.68-4.69,0-5.43,0-10.86,0-16.29,0-.14-.01-.27-.02-.42H3.12Zm6.08-9.17c-4.72-.52-6.56,2.73-6.02,6.02h33.59c.53-4.45-2.44-6.53-6.05-6,0,1,0,1.99,0,2.99-.01.87-.68,1.53-1.53,1.54-.87,0-1.56-.65-1.58-1.54-.02-.81,0-1.61,0-2.42,0-.2,0-.41,0-.61h-15.29c0,1.02,0,2.01,0,2.99-.01.87-.64,1.53-1.47,1.57-.91.04-1.63-.63-1.64-1.55-.01-1,0-2,0-3.01Z"/><path class="cls-1" d="m10.77,29.16c.51,0,1.01,0,1.52,0,.88.02,1.56.7,1.56,1.56,0,.84-.67,1.53-1.53,1.55-1.04.02-2.08.02-3.11,0-.87-.01-1.56-.74-1.54-1.58.02-.84.69-1.51,1.55-1.53.52-.01,1.04,0,1.56,0Z"/><path class="cls-1" d="m29.2,29.16c.51,0,1.01,0,1.52,0,.88.02,1.56.72,1.55,1.57-.01.84-.68,1.53-1.54,1.54-1.04.02-2.08.02-3.11,0-.86-.02-1.53-.71-1.53-1.55,0-.86.68-1.54,1.56-1.56.52-.01,1.04,0,1.56,0Z"/><path class="cls-1" d="m29.19,19.96c.51,0,1.01,0,1.52,0,.88.02,1.57.71,1.56,1.56,0,.85-.68,1.54-1.57,1.55-1.01.01-2.02.01-3.04,0-.9-.01-1.6-.71-1.58-1.58.02-.86.7-1.52,1.59-1.53.51,0,1.01,0,1.52,0Z"/><path class="cls-1" d="m10.74,23.07c-.51,0-1.01.01-1.52,0-.88-.02-1.57-.72-1.56-1.57,0-.85.69-1.54,1.58-1.55,1.01-.01,2.02-.01,3.04,0,.89,0,1.57.69,1.58,1.54,0,.85-.67,1.55-1.55,1.57-.52.01-1.04,0-1.56,0Z"/><path class="cls-1" d="m19.98,19.96c.51,0,1.01,0,1.52,0,.87.02,1.53.68,1.55,1.53.02.86-.66,1.56-1.54,1.58-1.04.02-2.08.02-3.11,0-.86-.02-1.53-.71-1.53-1.55,0-.85.68-1.54,1.56-1.56.52-.01,1.04,0,1.56,0Z"/><path class="cls-1" d="m19.96,32.27c-.51,0-1.01,0-1.52,0-.88-.02-1.57-.7-1.58-1.55,0-.87.69-1.56,1.59-1.57,1,0,2,0,3,0,.91,0,1.6.69,1.59,1.56,0,.86-.68,1.53-1.57,1.55-.51.01-1.01,0-1.52,0Z"/></g></svg>