<?xml version="1.0" encoding="UTF-8"?><svg id="Layer_2" xmlns="http://www.w3.org/2000/svg" viewBox="0 0 44 59.57"><defs><style>.cls-1{fill:#809848;}.cls-2{fill:#121212;}.cls-3{fill:none;stroke:#ede9e9;stroke-width:3px;}.cls-4{isolation:isolate;}</style></defs><g id="Layer_1-2"><g id="Tilføj_nyt_armbånd" class="cls-4"><g class="cls-4"><path class="cls-2" d="m10.55,51.77h-2.18v6.12h-1.34v-6.12h-2.18v-1.11h5.71v1.11Z"/><path class="cls-2" d="m10.08,53.48c.59-.54,1.3-.81,2.13-.81.3,0,.57.05.8.15.24.1.44.23.6.41.16.18.29.38.37.63s.13.51.13.8v3.24h-.56c-.12,0-.21-.02-.27-.05-.06-.04-.11-.11-.15-.21l-.11-.37c-.13.12-.26.22-.38.31-.12.09-.25.16-.38.22-.13.06-.28.11-.43.14-.15.03-.32.05-.5.05-.22,0-.42-.03-.6-.09-.18-.06-.34-.15-.47-.26-.13-.12-.24-.26-.31-.44-.07-.17-.11-.38-.11-.6,0-.13.02-.26.06-.39.04-.13.11-.25.21-.37.1-.12.23-.23.38-.33.16-.1.35-.19.58-.27.23-.08.49-.14.8-.19.3-.05.65-.08,1.04-.09v-.3c0-.34-.07-.6-.22-.76s-.36-.25-.63-.25c-.2,0-.37.02-.5.07-.13.05-.25.1-.35.16-.1.06-.19.11-.27.16-.08.05-.17.07-.27.07-.09,0-.16-.02-.22-.07-.06-.04-.11-.1-.14-.16l-.22-.4Zm2.83,2.22c-.36.02-.66.05-.9.09s-.44.1-.58.17c-.15.07-.25.15-.32.25-.06.09-.09.19-.09.3,0,.22.06.37.19.46.13.09.3.14.5.14.25,0,.47-.05.66-.14.18-.09.37-.23.54-.42v-.87Z"/><path class="cls-2" d="m16.43,53.39c.1-.1.21-.2.33-.29.12-.09.24-.16.37-.23.13-.06.27-.11.41-.14s.31-.05.48-.05c.28,0,.53.05.75.14.22.09.4.23.54.4.15.17.25.38.33.62s.11.5.11.79v3.26h-1.23v-3.26c0-.31-.07-.56-.22-.73-.14-.17-.36-.26-.65-.26-.21,0-.41.05-.6.14-.19.1-.36.23-.53.4v3.71h-1.24v-5.13h.75c.16,0,.26.08.32.22l.08.41Z"/><path class="cls-2" d="m22.15,50.46v4.25h.23c.08,0,.15-.01.2-.03.05-.02.1-.07.15-.13l1.27-1.58c.05-.07.11-.12.18-.16.07-.04.15-.05.25-.05h1.13l-1.59,1.91c-.11.15-.24.26-.37.34.07.05.13.11.19.17.05.07.11.14.16.21l1.71,2.49h-1.12c-.1,0-.18-.02-.25-.05-.07-.03-.13-.09-.17-.17l-1.31-1.95c-.05-.08-.1-.13-.15-.15-.05-.02-.12-.03-.22-.03h-.28v2.35h-1.24v-7.43h1.24Z"/><path class="cls-2" d="m30.96,52.68c.38,0,.73.06,1.04.18.31.12.58.3.8.53s.39.5.51.83c.12.33.18.69.18,1.09s-.06.77-.18,1.1c-.12.33-.29.6-.51.83-.22.23-.49.41-.8.53-.31.12-.66.19-1.04.19s-.73-.06-1.04-.19c-.31-.12-.58-.3-.8-.53-.22-.23-.39-.51-.52-.83-.12-.33-.18-.69-.18-1.1s.06-.77.18-1.09c.12-.33.29-.6.52-.83.22-.23.49-.4.8-.53.31-.12.66-.18,1.04-.18Zm0,4.33c.43,0,.74-.14.95-.43.21-.29.31-.71.31-1.26s-.1-.97-.31-1.26-.52-.43-.95-.43-.75.15-.96.44c-.21.29-.31.71-.31,1.26s.1.97.31,1.26c.21.29.53.43.96.43Z"/><path class="cls-2" d="m35.6,53.46c.21-.24.45-.43.72-.58s.58-.22.94-.22c.28,0,.54.06.77.17.23.12.43.29.6.51.17.22.3.5.39.82s.14.7.14,1.12c0,.38-.05.74-.16,1.07-.1.33-.25.61-.44.85-.19.24-.42.43-.7.56-.27.14-.58.2-.91.2-.29,0-.53-.04-.74-.13-.2-.09-.38-.21-.54-.37v2.1h-1.24v-6.8h.76c.16,0,.26.08.31.22l.1.48Zm.07,3.1c.14.17.29.29.46.36.16.07.34.1.54.1s.35-.04.5-.1c.15-.07.28-.18.38-.32.1-.14.19-.32.24-.54.06-.22.08-.48.08-.77s-.02-.55-.07-.76c-.05-.21-.12-.38-.21-.51-.09-.13-.2-.22-.33-.29-.13-.06-.27-.09-.44-.09-.26,0-.47.05-.66.16-.18.11-.35.26-.51.46v2.3Z"/></g></g><g id="Group_111"><g id="Group_11"><circle id="Ellipse_6" class="cls-1" cx="22" cy="22" r="22"/></g><g id="Group_55"><line id="Line_6-2" class="cls-3" x1="11" y1="22.02" x2="32.25" y2="22.02"/><line id="Line_7-2" class="cls-3" x1="22.02" y1="32.25" x2="22.02" y2="11"/></g></g></g></svg>