<?xml version="1.0" encoding="UTF-8"?><svg id="Layer_2" xmlns="http://www.w3.org/2000/svg" viewBox="0 0 55.89 48.45"><defs><style>.cls-1{fill:#fff;}.cls-2{isolation:isolate;}</style></defs><g id="Layer_1-2"><path class="cls-1" d="m55.89,22.21c-.45.93-1.19,1.23-2.21,1.21-2.4-.05-4.8-.02-7.2-.02-.2,0-.39,0-.58,0,.08.9.19,1.74.23,2.59.06,1.22-.62,1.9-1.84,1.9-3.24,0-6.48,0-9.79,0,.06.22.11.4.16.58.52,1.66.81,3.35.82,5.09.01,1.27-.62,1.91-1.91,1.91-3.37,0-6.73,0-10.1,0-7.13,0-14.26,0-21.39,0-1.53,0-2.1-.59-2.08-2.12.1-6.9,4.57-13.34,11.08-15.96.15-.06.29-.13.5-.21-2.56-2.27-3.78-5.08-3.48-8.45.23-2.53,1.36-4.65,3.26-6.34,3.85-3.42,10.29-3.36,14.1,1.38C26.98,1.5,29.05.15,31.81.02c2.75-.13,4.93,1,6.67,3.16C39.8,1.22,41.6.1,43.97,0c1.69-.07,3.19.47,4.48,1.54,2.59,2.15,3.46,6.26.74,9.55.78.52,1.6.99,2.32,1.57,2.47,2,3.91,4.6,4.29,7.76.01.09.06.17.09.25v1.53ZM3.42,32.16h28.65c-.58-6.48-6.45-13.04-14.81-12.77-8.15.26-13.39,6.9-13.84,12.77ZM24.14,9.71c.01-3.55-2.85-6.43-6.4-6.44-3.51,0-6.4,2.85-6.41,6.37-.02,3.55,2.84,6.45,6.37,6.47,3.54.01,6.43-2.85,6.44-6.39Zm1.41,8.16c.11.09.14.12.17.13,2.89,1.49,5.22,3.6,7,6.32.11.16.4.29.61.29,2.96.02,5.93.01,8.89.01.15,0,.31-.02.52-.04-.8-3.92-2.93-6.73-6.6-8.2-3.75-1.51-7.29-.9-10.59,1.48Zm6.62-5.56c2.5,0,4.51-2,4.51-4.5,0-2.5-1.99-4.51-4.49-4.53-2.5-.02-4.57,2.04-4.55,4.53.01,2.48,2.04,4.5,4.53,4.5Zm7.65,2.24c.09.09.11.14.16.16,1.94,1.33,3.46,3.03,4.58,5.11.09.16.39.29.6.3,2.27.02,4.55.01,6.82.01.14,0,.27-.02.47-.04-.7-2.91-2.35-4.98-5.07-6.11-2.57-1.07-5.09-.82-7.55.57Zm4.38-11.28c-1.86-.02-3.38,1.47-3.41,3.33-.03,1.91,1.49,3.47,3.38,3.47,1.84,0,3.37-1.52,3.4-3.36.02-1.87-1.5-3.42-3.37-3.43Z"/><g id="Tilføj_nyt_armbånd" class="cls-2"><g class="cls-2"><path class="cls-1" d="m11.38,41.14l-2.92,7.23h-1.21l-2.92-7.23h1.08c.12,0,.21.03.29.09s.13.13.17.22l1.71,4.41c.06.14.11.3.16.47.05.17.1.35.15.54.04-.19.08-.37.13-.54.05-.17.1-.33.16-.47l1.7-4.41c.03-.08.08-.15.16-.21s.17-.1.29-.1h1.08Z"/><path class="cls-1" d="m12.09,45.96c.02.26.07.49.14.68.07.19.17.35.29.47.12.12.26.22.43.28s.35.09.55.09.37-.02.52-.07c.14-.05.27-.1.38-.16.11-.06.2-.11.29-.15.08-.05.16-.07.24-.07.1,0,.18.04.23.12l.35.45c-.14.16-.29.29-.46.4s-.35.19-.53.26c-.19.07-.37.11-.57.14-.19.03-.38.04-.56.04-.36,0-.69-.06-1-.18s-.57-.29-.8-.53c-.23-.23-.41-.52-.54-.86s-.19-.74-.19-1.19c0-.35.06-.68.17-.99.11-.31.28-.58.49-.81.21-.23.47-.41.78-.54.3-.13.65-.2,1.03-.2.32,0,.62.05.89.16s.51.25.71.45c.2.2.35.44.46.73.11.29.17.62.17.99,0,.19-.02.31-.06.38-.04.07-.12.1-.23.1h-3.17Zm2.36-.75c0-.16-.02-.31-.07-.45s-.11-.27-.2-.37c-.09-.11-.2-.19-.34-.25-.14-.06-.3-.09-.48-.09-.36,0-.64.1-.84.31-.21.2-.34.49-.39.86h2.33Z"/><path class="cls-1" d="m17.64,43.87c.1-.1.21-.2.33-.29.12-.09.24-.16.37-.23.13-.06.27-.11.41-.14.15-.04.31-.05.48-.05.28,0,.53.05.75.14s.4.23.54.4c.14.17.25.38.33.62.08.24.11.5.11.79v3.26h-1.24v-3.26c0-.31-.07-.56-.21-.73s-.36-.26-.66-.26c-.21,0-.41.05-.6.14-.19.1-.36.23-.53.4v3.71h-1.24v-5.13h.76c.16,0,.26.08.31.22l.08.41Z"/><path class="cls-1" d="m23.76,48.45c-.45,0-.79-.13-1.03-.38-.24-.25-.36-.6-.36-1.04v-2.87h-.52c-.07,0-.12-.02-.17-.06-.05-.04-.07-.11-.07-.2v-.49l.83-.13.26-1.4c.02-.07.05-.12.09-.15.05-.04.11-.06.18-.06h.64v1.62h1.37v.88h-1.37v2.78c0,.16.04.29.12.38s.19.13.32.13c.08,0,.14,0,.19-.03.05-.02.1-.04.13-.06.04-.02.07-.04.1-.06.03-.02.06-.03.09-.03.04,0,.07,0,.09.03s.05.05.08.08l.37.6c-.18.15-.39.26-.62.34-.23.08-.48.12-.73.12Z"/><path class="cls-1" d="m26.68,45.96c.02.26.07.49.14.68.07.19.17.35.29.47.12.12.26.22.43.28s.35.09.55.09.37-.02.52-.07c.14-.05.27-.1.38-.16.11-.06.2-.11.29-.15.08-.05.16-.07.24-.07.1,0,.18.04.23.12l.35.45c-.14.16-.29.29-.46.4s-.35.19-.53.26c-.19.07-.37.11-.57.14-.19.03-.38.04-.56.04-.36,0-.69-.06-1-.18s-.57-.29-.8-.53c-.23-.23-.41-.52-.54-.86s-.19-.74-.19-1.19c0-.35.06-.68.17-.99.11-.31.28-.58.49-.81.21-.23.47-.41.78-.54.3-.13.65-.2,1.03-.2.32,0,.62.05.89.16s.51.25.71.45c.2.2.35.44.46.73.11.29.17.62.17.99,0,.19-.02.31-.06.38-.04.07-.12.1-.23.1h-3.17Zm2.36-.75c0-.16-.02-.31-.07-.45s-.11-.27-.2-.37c-.09-.11-.2-.19-.34-.25-.14-.06-.3-.09-.48-.09-.36,0-.64.1-.84.31-.21.2-.34.49-.39.86h2.33Z"/><path class="cls-1" d="m36.2,48.37h-1.24v-4.21h-2.38v2.78c0,.16.04.29.12.38s.19.13.32.13c.08,0,.14,0,.19-.03.05-.02.1-.04.13-.06.04-.02.07-.04.1-.06.03-.02.06-.03.09-.03.04,0,.07,0,.09.03s.05.05.08.08l.37.6c-.18.15-.39.26-.62.34-.23.08-.48.12-.73.12-.45,0-.79-.13-1.03-.38-.24-.25-.36-.6-.36-1.04v-2.87h-.52c-.07,0-.12-.02-.17-.06-.05-.04-.07-.11-.07-.2v-.49l.83-.14.26-1.4c.02-.07.05-.12.09-.15.05-.04.11-.06.18-.06h.64v1.62h3.62v5.08Zm.21-6.64c0,.11-.02.21-.07.3-.04.1-.1.18-.17.25-.07.07-.16.13-.26.17-.1.04-.2.06-.31.06s-.21-.02-.3-.06c-.09-.04-.17-.1-.25-.17-.07-.07-.13-.15-.17-.25-.04-.09-.06-.2-.06-.3s.02-.21.06-.31c.04-.1.1-.18.17-.25.07-.07.15-.13.25-.17.09-.04.19-.06.3-.06s.21.02.31.06c.1.04.18.1.26.17s.13.15.17.25c.04.09.07.2.07.31Z"/><path class="cls-1" d="m41.91,40.94v7.43h-.75c-.16,0-.27-.08-.31-.22l-.1-.5c-.21.24-.44.43-.71.58-.27.15-.58.22-.94.22-.28,0-.54-.06-.77-.17-.23-.12-.43-.29-.6-.51-.17-.22-.3-.5-.39-.82-.09-.33-.14-.7-.14-1.12,0-.38.05-.73.15-1.06.1-.33.25-.61.45-.85s.42-.43.7-.56c.27-.13.57-.2.91-.2.29,0,.53.04.74.13s.38.21.54.37v-2.71h1.24Zm-1.24,3.61c-.14-.17-.29-.29-.46-.36-.17-.07-.34-.11-.53-.11s-.35.04-.5.11c-.15.07-.28.18-.38.32s-.19.32-.25.54c-.06.22-.08.48-.08.77s.02.55.07.76c.05.21.12.38.21.51s.2.23.33.29c.13.06.27.09.43.09.26,0,.48-.05.66-.16.18-.11.35-.26.51-.45v-2.3Z"/><path class="cls-1" d="m44.08,45.96c.02.26.07.49.14.68s.17.35.29.47.26.22.43.28.35.09.55.09.37-.02.52-.07c.15-.05.27-.1.38-.16.11-.06.2-.11.29-.15.08-.05.16-.07.24-.07.1,0,.18.04.23.12l.36.45c-.14.16-.29.29-.46.4-.17.11-.35.19-.53.26-.18.07-.37.11-.56.14-.19.03-.38.04-.56.04-.36,0-.69-.06-1-.18s-.57-.29-.8-.53c-.23-.23-.41-.52-.54-.86s-.2-.74-.2-1.19c0-.35.06-.68.17-.99.11-.31.28-.58.49-.81.21-.23.47-.41.78-.54.3-.13.65-.2,1.03-.2.32,0,.62.05.9.16s.51.25.71.45c.2.2.35.44.46.73.11.29.17.62.17.99,0,.19-.02.31-.06.38-.04.07-.12.1-.23.1h-3.17Zm2.35-.75c0-.16-.02-.31-.07-.45s-.11-.27-.2-.37c-.09-.11-.2-.19-.34-.25s-.3-.09-.48-.09c-.36,0-.64.1-.84.31-.21.2-.34.49-.39.86h2.33Z"/><path class="cls-1" d="m49.64,44.13c.16-.31.35-.55.57-.72.22-.17.48-.26.78-.26.24,0,.43.05.57.15l-.08.93c-.02.06-.04.1-.07.13-.03.03-.07.04-.13.04-.05,0-.12,0-.22-.02s-.19-.03-.29-.03c-.14,0-.26.02-.36.06-.11.04-.2.1-.29.17-.08.08-.16.17-.22.27-.07.11-.13.23-.18.37v3.16h-1.24v-5.13h.73c.13,0,.21.02.26.07s.08.13.1.24l.07.58Z"/></g></g></g></svg>